<?xml version="1.0" encoding="UTF-8" standalone="no"?>
<svg viewBox="0 0 1920 1060"
     clip="0 1920 1060 0"
     preserveAspectRatio="xMidYMid meet"
     version="1.1"
     baseProfile="full"
     xmlns="http://www.w3.org/2000/svg"
     xmlns:xlink="http://www.w3.org/1999/xlink"
     xmlns:ev="http://www.w3.org/2001/xml-events"
     xml:space="preserve">
<title>add_accum</title>
<desc>Nlview schematic (SVG)</desc>
<clipPath id="clippingbbox">
<rect x="0" y="0" width="1920" height="1060" />
</clipPath>
<g stroke="black"
   stroke-width="2"
   stroke-linecap="butt"
   stroke-linejoin="miter"
   stroke-miterlimit="4"
   stroke-dasharray="none"
   stroke-dashoffset="0"
   fill="none"
   font-family="Helvetica"
   font-style="normal"
   font-size="12"
   writing-mode="lr-tb"
   cursor="crosshair"
   clip-path="url(#clippingbbox)">
<path d="M0 0h1920v1061h-1920z" stroke="none" fill="white" />
<path d="M450 30h50v70h-50z" stroke="none" fill="white" />
<g>
<path d="M450 30h50v70h-50z" />
<path d="M450 77l8 3l-8 3" />
<text x="480" y="104" fill="black" stroke-width="0" font-size="10" dy="6.5">FD1P3IX</text>
<text x="475" y="28" fill="black" stroke-width="0" text-anchor="middle">accumsum__i3</text>
<path d="M440 50h10" />
<text x="455" y="50" fill="black" stroke-width="0" font-size="8" dy="2.65">D</text>
<path d="M440 65h10" />
<text x="455" y="65" fill="black" stroke-width="0" font-size="8" dy="2.65">SP</text>
<path d="M470 110v-10" />
<text x="470" y="98" fill="black" stroke-width="0" font-size="8" text-anchor="middle">CD</text>
<path d="M440 80h10" />
<text x="465" y="80" fill="black" stroke-width="0" font-size="8" dy="2.65">CK</text>
<path d="M510 50h-10" />
<text x="495" y="50" fill="black" stroke-width="0" font-size="8" text-anchor="end" dy="2.65">Q</text>
<path d="M720 140h50v70h-50z" stroke="none" fill="white" />
<path d="M720 140h50v70h-50z" />
<path d="M720 187l8 3l-8 3" />
<text x="750" y="214" fill="black" stroke-width="0" font-size="10" dy="6.5">FD1P3IX</text>
<text x="745" y="138" fill="black" stroke-width="0" text-anchor="middle">accumsum__i5</text>
<path d="M710 160h10" />
<text x="725" y="160" fill="black" stroke-width="0" font-size="8" dy="2.65">D</text>
<path d="M710 175h10" />
<text x="725" y="175" fill="black" stroke-width="0" font-size="8" dy="2.65">SP</text>
<path d="M740 220v-10" />
<text x="740" y="208" fill="black" stroke-width="0" font-size="8" text-anchor="middle">CD</text>
<path d="M710 190h10" />
<text x="735" y="190" fill="black" stroke-width="0" font-size="8" dy="2.65">CK</text>
<path d="M780 160h-10" />
<text x="765" y="160" fill="black" stroke-width="0" font-size="8" text-anchor="end" dy="2.65">Q</text>
<path d="M1010 230h50v70h-50z" stroke="none" fill="white" />
<path d="M1010 230h50v70h-50z" />
<path d="M1010 277l8 3l-8 3" />
<text x="1040" y="304" fill="black" stroke-width="0" font-size="10" dy="6.5">FD1P3IX</text>
<text x="1035" y="228" fill="black" stroke-width="0" text-anchor="middle">accumsum__i7</text>
<path d="M1000 250h10" />
<text x="1015" y="250" fill="black" stroke-width="0" font-size="8" dy="2.65">D</text>
<path d="M1000 265h10" />
<text x="1015" y="265" fill="black" stroke-width="0" font-size="8" dy="2.65">SP</text>
<path d="M1030 310v-10" />
<text x="1030" y="298" fill="black" stroke-width="0" font-size="8" text-anchor="middle">CD</text>
<path d="M1000 280h10" />
<text x="1025" y="280" fill="black" stroke-width="0" font-size="8" dy="2.65">CK</text>
<path d="M1070 250h-10" />
<text x="1055" y="250" fill="black" stroke-width="0" font-size="8" text-anchor="end" dy="2.65">Q</text>
<path d="M1460 315h50v70h-50z" stroke="none" fill="white" />
<path d="M1460 315h50v70h-50z" />
<path d="M1460 362l8 3l-8 3" />
<text x="1490" y="389" fill="black" stroke-width="0" font-size="10" dy="6.5">FD1P3IX</text>
<text x="1485" y="313" fill="black" stroke-width="0" text-anchor="middle">accumsum__i2</text>
<path d="M1450 335h10" />
<text x="1465" y="335" fill="black" stroke-width="0" font-size="8" dy="2.65">D</text>
<path d="M1450 350h10" />
<text x="1465" y="350" fill="black" stroke-width="0" font-size="8" dy="2.65">SP</text>
<path d="M1480 395v-10" />
<text x="1480" y="383" fill="black" stroke-width="0" font-size="8" text-anchor="middle">CD</text>
<path d="M1450 365h10" />
<text x="1475" y="365" fill="black" stroke-width="0" font-size="8" dy="2.65">CK</text>
<path d="M1520 335h-10" />
<text x="1505" y="335" fill="black" stroke-width="0" font-size="8" text-anchor="end" dy="2.65">Q</text>
<path d="M230 80v-12l30 12l-30 12z" stroke="none" fill="white" />
<path d="M230 80v-12l30 12l-30 12z" />
<text x="232" y="66" fill="black" stroke-width="0">clock_pad</text>
<path d="M220 80h10" />
<text x="228" y="79" fill="black" stroke-width="0" font-size="10" text-anchor="end">I</text>
<path d="M270 80h-10" />
<text x="262" y="79" fill="black" stroke-width="0" font-size="10">O</text>
<path d="M80 80l-7 7h-14v-14h14z" />
<text x="55" y="80" fill="black" stroke-width="0" text-anchor="end" dy="3.85">clock</text>
<path d="M110 160v-12l30 12l-30 12z" stroke="none" fill="white" />
<path d="M110 160v-12l30 12l-30 12z" />
<text x="112" y="146" fill="black" stroke-width="0">valid_pad</text>
<path d="M100 160h10" />
<text x="108" y="159" fill="black" stroke-width="0" font-size="10" text-anchor="end">I</text>
<path d="M150 160h-10" />
<text x="142" y="159" fill="black" stroke-width="0" font-size="10">O</text>
<path d="M80 160l-7 7h-14v-14h14z" />
<text x="55" y="160" fill="black" stroke-width="0" text-anchor="end" dy="3.85">valid</text>
<path d="M1460 445h50v70h-50z" stroke="none" fill="white" />
<path d="M1460 445h50v70h-50z" />
<path d="M1460 492l8 3l-8 3" />
<text x="1490" y="519" fill="black" stroke-width="0" font-size="10" dy="6.5">FD1P3IX</text>
<text x="1485" y="443" fill="black" stroke-width="0" text-anchor="middle">accumsum__i1</text>
<path d="M1450 465h10" />
<text x="1465" y="465" fill="black" stroke-width="0" font-size="8" dy="2.65">D</text>
<path d="M1450 480h10" />
<text x="1465" y="480" fill="black" stroke-width="0" font-size="8" dy="2.65">SP</text>
<path d="M1480 525v-10" />
<text x="1480" y="513" fill="black" stroke-width="0" font-size="8" text-anchor="middle">CD</text>
<path d="M1450 495h10" />
<text x="1475" y="495" fill="black" stroke-width="0" font-size="8" dy="2.65">CK</text>
<path d="M1520 465h-10" />
<text x="1505" y="465" fill="black" stroke-width="0" font-size="8" text-anchor="end" dy="2.65">Q</text>
<path d="M230 140h60v100h-60z" stroke="none" fill="#c6c6c6" />
<path d="M230 140h60v100h-60z" />
<text x="260" y="138" fill="black" stroke-width="0" text-anchor="middle">i18_2_lut</text>
<text x="260" y="242" fill="black" stroke-width="0" text-anchor="middle" dy="7.7">LUT4_heeee</text>
<path d="M220 160h10" />
<text x="232" y="160" fill="black" stroke-width="0" font-size="10" dy="3.25">A</text>
<path d="M220 180h10" />
<text x="232" y="180" fill="black" stroke-width="0" font-size="10" dy="3.25">B</text>
<path d="M220 200h10" />
<text x="232" y="200" fill="black" stroke-width="0" font-size="10" dy="3.25">C</text>
<path d="M220 220h10" />
<text x="232" y="220" fill="black" stroke-width="0" font-size="10" dy="3.25">D</text>
<path d="M300 190h-10" />
<text x="288" y="190" fill="black" stroke-width="0" font-size="10" text-anchor="end" dy="3.25">Z</text>
<path d="M450 220h50v70h-50z" stroke="none" fill="white" />
<path d="M450 220h50v70h-50z" />
<path d="M450 267l8 3l-8 3" />
<text x="480" y="294" fill="black" stroke-width="0" font-size="10" dy="6.5">FD1P3IX</text>
<text x="475" y="218" fill="black" stroke-width="0" text-anchor="middle">accumsum__i4</text>
<path d="M440 240h10" />
<text x="455" y="240" fill="black" stroke-width="0" font-size="8" dy="2.65">D</text>
<path d="M440 255h10" />
<text x="455" y="255" fill="black" stroke-width="0" font-size="8" dy="2.65">SP</text>
<path d="M470 300v-10" />
<text x="470" y="288" fill="black" stroke-width="0" font-size="8" text-anchor="middle">CD</text>
<path d="M440 270h10" />
<text x="465" y="270" fill="black" stroke-width="0" font-size="8" dy="2.65">CK</text>
<path d="M510 240h-10" />
<text x="495" y="240" fill="black" stroke-width="0" font-size="8" text-anchor="end" dy="2.65">Q</text>
<path d="M720 310h50v70h-50z" stroke="none" fill="white" />
<path d="M720 310h50v70h-50z" />
<path d="M720 357l8 3l-8 3" />
<text x="750" y="384" fill="black" stroke-width="0" font-size="10" dy="6.5">FD1P3IX</text>
<text x="745" y="308" fill="black" stroke-width="0" text-anchor="middle">accumsum__i6</text>
<path d="M710 330h10" />
<text x="725" y="330" fill="black" stroke-width="0" font-size="8" dy="2.65">D</text>
<path d="M710 345h10" />
<text x="725" y="345" fill="black" stroke-width="0" font-size="8" dy="2.65">SP</text>
<path d="M740 390v-10" />
<text x="740" y="378" fill="black" stroke-width="0" font-size="8" text-anchor="middle">CD</text>
<path d="M710 360h10" />
<text x="735" y="360" fill="black" stroke-width="0" font-size="8" dy="2.65">CK</text>
<path d="M780 330h-10" />
<text x="765" y="330" fill="black" stroke-width="0" font-size="8" text-anchor="end" dy="2.65">Q</text>
<path d="M1010 400h50v70h-50z" stroke="none" fill="white" />
<path d="M1010 400h50v70h-50z" />
<path d="M1010 447l8 3l-8 3" />
<text x="1040" y="474" fill="black" stroke-width="0" font-size="10" dy="6.5">FD1P3IX</text>
<text x="1035" y="398" fill="black" stroke-width="0" text-anchor="middle">accumsum__i8</text>
<path d="M1000 420h10" />
<text x="1015" y="420" fill="black" stroke-width="0" font-size="8" dy="2.65">D</text>
<path d="M1000 435h10" />
<text x="1015" y="435" fill="black" stroke-width="0" font-size="8" dy="2.65">SP</text>
<path d="M1030 480v-10" />
<text x="1030" y="468" fill="black" stroke-width="0" font-size="8" text-anchor="middle">CD</text>
<path d="M1000 450h10" />
<text x="1025" y="450" fill="black" stroke-width="0" font-size="8" dy="2.65">CK</text>
<path d="M1070 420h-10" />
<text x="1055" y="420" fill="black" stroke-width="0" font-size="8" text-anchor="end" dy="2.65">Q</text>
<path d="M110 270v-12l30 12l-30 12z" stroke="none" fill="white" />
<path d="M110 270v-12l30 12l-30 12z" />
<text x="112" y="256" fill="black" stroke-width="0">reset_pad</text>
<path d="M100 270h10" />
<text x="108" y="269" fill="black" stroke-width="0" font-size="10" text-anchor="end">I</text>
<path d="M150 270h-10" />
<text x="142" y="269" fill="black" stroke-width="0" font-size="10">O</text>
<path d="M80 270l-7 7h-14v-14h14z" />
<text x="55" y="270" fill="black" stroke-width="0" text-anchor="end" dy="3.85">reset</text>
</g>
<g stroke-width="3">
<path d="M1780 680v-7h14l7 7l-7 7h-14z" />
<text x="1805" y="680" fill="black" stroke-width="0" dy="3.85">accumsum[7:0]</text>
<path d="M450 350h80v120h-80z" stroke="none" fill="white" />
</g>
<g>
<path d="M450 350h80v120h-80z" />
<text x="490" y="348" fill="black" stroke-width="0" text-anchor="middle">_add_1_add_4_2</text>
<text x="490" y="472" fill="black" stroke-width="0" text-anchor="middle" dy="7.7">CCU2C</text>
<path d="M440 370h10" />
<text x="452" y="370" fill="black" stroke-width="0" font-size="10" dy="3.25">CIN</text>
<path d="M540 400h-10" />
<text x="528" y="400" fill="black" stroke-width="0" font-size="10" text-anchor="end" dy="3.25">COUT</text>
</g>
<g stroke-width="3">
<path d="M440 390h10" />
<text x="452" y="390" fill="black" stroke-width="0" font-size="10" dy="3.25">A[0:1]</text>
<path d="M440 410h10" />
<text x="452" y="410" fill="black" stroke-width="0" font-size="10" dy="3.25">B[0:1]</text>
<path d="M440 430h10" />
<text x="452" y="430" fill="black" stroke-width="0" font-size="10" dy="3.25">C[0:1]</text>
<path d="M440 450h10" />
<text x="452" y="450" fill="black" stroke-width="0" font-size="10" dy="3.25">D[0:1]</text>
<path d="M540 420h-10" />
<text x="528" y="420" fill="black" stroke-width="0" font-size="10" text-anchor="end" dy="3.25">S[0:1]</text>
<path d="M720 550h80v120h-80z" stroke="none" fill="white" />
</g>
<g>
<path d="M720 550h80v120h-80z" />
<text x="760" y="548" fill="black" stroke-width="0" text-anchor="middle">_add_1_add_4_4</text>
<text x="760" y="672" fill="black" stroke-width="0" text-anchor="middle" dy="7.7">CCU2C</text>
<path d="M710 570h10" />
<text x="722" y="570" fill="black" stroke-width="0" font-size="10" dy="3.25">CIN</text>
<path d="M810 600h-10" />
<text x="798" y="600" fill="black" stroke-width="0" font-size="10" text-anchor="end" dy="3.25">COUT</text>
</g>
<g stroke-width="3">
<path d="M710 590h10" />
<text x="722" y="590" fill="black" stroke-width="0" font-size="10" dy="3.25">A[0:1]</text>
<path d="M710 610h10" />
<text x="722" y="610" fill="black" stroke-width="0" font-size="10" dy="3.25">B[0:1]</text>
<path d="M710 630h10" />
<text x="722" y="630" fill="black" stroke-width="0" font-size="10" dy="3.25">C[0:1]</text>
<path d="M710 650h10" />
<text x="722" y="650" fill="black" stroke-width="0" font-size="10" dy="3.25">D[0:1]</text>
<path d="M810 620h-10" />
<text x="798" y="620" fill="black" stroke-width="0" font-size="10" text-anchor="end" dy="3.25">S[0:1]</text>
<path d="M1010 530h80v120h-80z" stroke="none" fill="white" />
</g>
<g>
<path d="M1010 530h80v120h-80z" />
<text x="1050" y="528" fill="black" stroke-width="0" text-anchor="middle">_add_1_add_4_6</text>
<text x="1050" y="652" fill="black" stroke-width="0" text-anchor="middle" dy="7.7">CCU2C</text>
<path d="M1000 550h10" />
<text x="1012" y="550" fill="black" stroke-width="0" font-size="10" dy="3.25">CIN</text>
<path d="M1100 580h-10" />
<text x="1088" y="580" fill="black" stroke-width="0" font-size="10" text-anchor="end" dy="3.25">COUT</text>
</g>
<g stroke-width="3">
<path d="M1000 570h10" />
<text x="1012" y="570" fill="black" stroke-width="0" font-size="10" dy="3.25">A[0:1]</text>
<path d="M1000 590h10" />
<text x="1012" y="590" fill="black" stroke-width="0" font-size="10" dy="3.25">B[0:1]</text>
<path d="M1000 610h10" />
<text x="1012" y="610" fill="black" stroke-width="0" font-size="10" dy="3.25">C[0:1]</text>
<path d="M1000 630h10" />
<text x="1012" y="630" fill="black" stroke-width="0" font-size="10" dy="3.25">D[0:1]</text>
<path d="M1100 600h-10" />
<text x="1088" y="600" fill="black" stroke-width="0" font-size="10" text-anchor="end" dy="3.25">S[0:1]</text>
<path d="M1230 580h80v120h-80z" stroke="none" fill="white" />
</g>
<g>
<path d="M1230 580h80v120h-80z" />
<text x="1270" y="578" fill="black" stroke-width="0" text-anchor="middle">_add_1_add_4_8</text>
<text x="1270" y="702" fill="black" stroke-width="0" text-anchor="middle" dy="7.7">CCU2C</text>
<path d="M1220 600h10" />
<text x="1232" y="600" fill="black" stroke-width="0" font-size="10" dy="3.25">CIN</text>
<path d="M1320 630h-10" />
<text x="1308" y="630" fill="black" stroke-width="0" font-size="10" text-anchor="end" dy="3.25">COUT</text>
</g>
<g stroke-width="3">
<path d="M1220 620h10" />
<text x="1232" y="620" fill="black" stroke-width="0" font-size="10" dy="3.25">A[0:1]</text>
<path d="M1220 640h10" />
<text x="1232" y="640" fill="black" stroke-width="0" font-size="10" dy="3.25">B[0:1]</text>
<path d="M1220 660h10" />
<text x="1232" y="660" fill="black" stroke-width="0" font-size="10" dy="3.25">C[0:1]</text>
<path d="M1220 680h10" />
<text x="1232" y="680" fill="black" stroke-width="0" font-size="10" dy="3.25">D[0:1]</text>
<path d="M1320 650h-10" />
<text x="1308" y="650" fill="black" stroke-width="0" font-size="10" text-anchor="end" dy="3.25">S[0:1]</text>
<path d="M230 530h60v40h-60z" stroke="none" fill="white" />
</g>
<g>
<path d="M230 530h60v40h-60z" />
<text x="260" y="528" fill="black" stroke-width="0" text-anchor="middle">i1</text>
<text x="260" y="572" fill="black" stroke-width="0" text-anchor="middle" dy="7.7">VLO</text>
<path d="M300 550h-10" />
<text x="288" y="550" fill="black" stroke-width="0" font-size="10" text-anchor="end" dy="3.25">Z</text>
<path d="M1610 680v-12l30 12l-30 12z" stroke="none" fill="white" />
<path d="M1610 680v-12l30 12l-30 12z" />
<text x="1612" y="666" fill="black" stroke-width="0">accumsum_pad[0]</text>
<path d="M1600 680h10" />
<text x="1608" y="679" fill="black" stroke-width="0" font-size="10" text-anchor="end">I</text>
<path d="M1650 680h-10" />
<text x="1642" y="679" fill="black" stroke-width="0" font-size="10">O</text>
<path d="M1230 780h60v100h-60z" stroke="none" fill="#c6c6c6" />
<path d="M1230 780h60v100h-60z" />
<text x="1260" y="778" fill="black" stroke-width="0" text-anchor="middle">i27_2_lut</text>
<text x="1260" y="882" fill="black" stroke-width="0" text-anchor="middle" dy="7.7">LUT4_h6666</text>
<path d="M1220 800h10" />
<text x="1232" y="800" fill="black" stroke-width="0" font-size="10" dy="3.25">A</text>
<path d="M1220 820h10" />
<text x="1232" y="820" fill="black" stroke-width="0" font-size="10" dy="3.25">B</text>
<path d="M1220 840h10" />
<text x="1232" y="840" fill="black" stroke-width="0" font-size="10" dy="3.25">C</text>
<path d="M1220 860h10" />
<text x="1232" y="860" fill="black" stroke-width="0" font-size="10" dy="3.25">D</text>
<path d="M1300 830h-10" />
<text x="1288" y="830" fill="black" stroke-width="0" font-size="10" text-anchor="end" dy="3.25">Z</text>
<path d="M230 610h60v40h-60z" stroke="none" fill="white" />
<path d="M230 610h60v40h-60z" />
<text x="260" y="608" fill="black" stroke-width="0" text-anchor="middle">i26</text>
<text x="260" y="652" fill="black" stroke-width="0" text-anchor="middle" dy="7.7">VHI</text>
<path d="M300 630h-10" />
<text x="288" y="630" fill="black" stroke-width="0" font-size="10" text-anchor="end" dy="3.25">Z</text>
<path d="M450 510h60v40h-60z" stroke="none" fill="white" />
<path d="M450 510h60v40h-60z" />
<text x="480" y="508" fill="black" stroke-width="0" text-anchor="middle">GSR_INST</text>
<text x="480" y="552" fill="black" stroke-width="0" text-anchor="middle" dy="7.7">GSR</text>
<path d="M440 530h10" />
<text x="452" y="530" fill="black" stroke-width="0" font-size="10" dy="3.25">GSR</text>
<path d="M1610 730v-12l30 12l-30 12z" stroke="none" fill="white" />
<path d="M1610 730v-12l30 12l-30 12z" />
<text x="1612" y="716" fill="black" stroke-width="0">accumsum_pad[1]</text>
<path d="M1600 730h10" />
<text x="1608" y="729" fill="black" stroke-width="0" font-size="10" text-anchor="end">I</text>
<path d="M1650 730h-10" />
<text x="1642" y="729" fill="black" stroke-width="0" font-size="10">O</text>
<path d="M230 440v-12l30 12l-30 12z" stroke="none" fill="white" />
<path d="M230 440v-12l30 12l-30 12z" />
<text x="232" y="426" fill="black" stroke-width="0">x_pad[0]</text>
<path d="M220 440h10" />
<text x="228" y="439" fill="black" stroke-width="0" font-size="10" text-anchor="end">I</text>
<path d="M270 440h-10" />
<text x="262" y="439" fill="black" stroke-width="0" font-size="10">O</text>
<path d="M450 680v-12l30 12l-30 12z" stroke="none" fill="white" />
<path d="M450 680v-12l30 12l-30 12z" />
<text x="452" y="666" fill="black" stroke-width="0">x_pad[2]</text>
<path d="M440 680h10" />
<text x="448" y="679" fill="black" stroke-width="0" font-size="10" text-anchor="end">I</text>
<path d="M490 680h-10" />
<text x="482" y="679" fill="black" stroke-width="0" font-size="10">O</text>
<path d="M1610 780v-12l30 12l-30 12z" stroke="none" fill="white" />
<path d="M1610 780v-12l30 12l-30 12z" />
<text x="1612" y="766" fill="black" stroke-width="0">accumsum_pad[2]</text>
<path d="M1600 780h10" />
<text x="1608" y="779" fill="black" stroke-width="0" font-size="10" text-anchor="end">I</text>
<path d="M1650 780h-10" />
<text x="1642" y="779" fill="black" stroke-width="0" font-size="10">O</text>
</g>
<g stroke-width="3">
<path d="M80 440l-7 7h-14v-14h14z" />
<text x="55" y="440" fill="black" stroke-width="0" text-anchor="end" dy="3.85">x[3:0]</text>
<path d="M230 490v-12l30 12l-30 12z" stroke="none" fill="white" />
</g>
<g>
<path d="M230 490v-12l30 12l-30 12z" />
<text x="232" y="476" fill="black" stroke-width="0">x_pad[1]</text>
<path d="M220 490h10" />
<text x="228" y="489" fill="black" stroke-width="0" font-size="10" text-anchor="end">I</text>
<path d="M270 490h-10" />
<text x="262" y="489" fill="black" stroke-width="0" font-size="10">O</text>
<path d="M450 730v-12l30 12l-30 12z" stroke="none" fill="white" />
<path d="M450 730v-12l30 12l-30 12z" />
<text x="452" y="716" fill="black" stroke-width="0">x_pad[3]</text>
<path d="M440 730h10" />
<text x="448" y="729" fill="black" stroke-width="0" font-size="10" text-anchor="end">I</text>
<path d="M490 730h-10" />
<text x="482" y="729" fill="black" stroke-width="0" font-size="10">O</text>
<path d="M1610 830v-12l30 12l-30 12z" stroke="none" fill="white" />
<path d="M1610 830v-12l30 12l-30 12z" />
<text x="1612" y="816" fill="black" stroke-width="0">accumsum_pad[3]</text>
<path d="M1600 830h10" />
<text x="1608" y="829" fill="black" stroke-width="0" font-size="10" text-anchor="end">I</text>
<path d="M1650 830h-10" />
<text x="1642" y="829" fill="black" stroke-width="0" font-size="10">O</text>
<path d="M450 590h60v40h-60z" stroke="none" fill="white" />
<path d="M450 590h60v40h-60z" />
<text x="480" y="588" fill="black" stroke-width="0" text-anchor="middle">PUR_INST</text>
<text x="480" y="632" fill="black" stroke-width="0" text-anchor="middle" dy="7.7">PUR</text>
<path d="M440 610h10" />
<text x="452" y="610" fill="black" stroke-width="0" font-size="10" dy="3.25">PUR</text>
<path d="M1610 880v-12l30 12l-30 12z" stroke="none" fill="white" />
<path d="M1610 880v-12l30 12l-30 12z" />
<text x="1612" y="866" fill="black" stroke-width="0">accumsum_pad[6]</text>
<path d="M1600 880h10" />
<text x="1608" y="879" fill="black" stroke-width="0" font-size="10" text-anchor="end">I</text>
<path d="M1650 880h-10" />
<text x="1642" y="879" fill="black" stroke-width="0" font-size="10">O</text>
<path d="M1610 930v-12l30 12l-30 12z" stroke="none" fill="white" />
<path d="M1610 930v-12l30 12l-30 12z" />
<text x="1612" y="916" fill="black" stroke-width="0">accumsum_pad[7]</text>
<path d="M1600 930h10" />
<text x="1608" y="929" fill="black" stroke-width="0" font-size="10" text-anchor="end">I</text>
<path d="M1650 930h-10" />
<text x="1642" y="929" fill="black" stroke-width="0" font-size="10">O</text>
<path d="M1610 980v-12l30 12l-30 12z" stroke="none" fill="white" />
<path d="M1610 980v-12l30 12l-30 12z" />
<text x="1612" y="966" fill="black" stroke-width="0">accumsum_pad[4]</text>
<path d="M1600 980h10" />
<text x="1608" y="979" fill="black" stroke-width="0" font-size="10" text-anchor="end">I</text>
<path d="M1650 980h-10" />
<text x="1642" y="979" fill="black" stroke-width="0" font-size="10">O</text>
<path d="M1610 1030v-12l30 12l-30 12z" stroke="none" fill="white" />
<path d="M1610 1030v-12l30 12l-30 12z" />
<text x="1612" y="1016" fill="black" stroke-width="0">accumsum_pad[5]</text>
<path d="M1600 1030h10" />
<text x="1608" y="1029" fill="black" stroke-width="0" font-size="10" text-anchor="end">I</text>
<path d="M1650 1030h-10" />
<text x="1642" y="1029" fill="black" stroke-width="0" font-size="10">O</text>
</g>
<g stroke-width="3">
<path d="M440 410h-40v410h790" />
<path d="M1190 823v-73h370v-418" />
</g>
<g>
<path d="M1560 730h40" />
<path d="M1560 680h40" />
<path d="M1520 465h40" />
<path d="M1520 335h40" />
<path d="M1190 820h30" />
</g>
<g stroke="#a07560" stroke-width="3">
<path d="M1189 815v10l11 -5" stroke="none" fill="#a07560" />
<path d="M1559 725v10l11 -5" stroke="none" fill="#a07560" />
<path d="M1559 675v10l11 -5" stroke="none" fill="#a07560" />
<path d="M1561 460v10l-11 -5" stroke="none" fill="#a07560" />
<path d="M1561 330v10l-11 -5" stroke="none" fill="#a07560" />
</g>
<g stroke-width="3">
<path d="M630 47v863h930v-133" />
<path d="M630 610h80" />
<path d="M627 607h7v7h-7z" stroke="none" fill="black" />
</g>
<g>
<path d="M1560 830h40" />
<path d="M1560 780h40" />
<path d="M510 50h120" />
<path d="M510 240h120" />
</g>
<g stroke="#a07560" stroke-width="3">
<path d="M1559 825v10l11 -5" stroke="none" fill="#a07560" />
<path d="M1559 775v10l11 -5" stroke="none" fill="#a07560" />
<path d="M631 45v10l-11 -5" stroke="none" fill="#a07560" />
<path d="M631 235v10l-11 -5" stroke="none" fill="#a07560" />
</g>
<g stroke-width="3">
<path d="M840 157v823h740" />
<path d="M840 570h160" />
<path d="M837 567h7v7h-7z" stroke="none" fill="black" />
<path d="M1580 977v56" />
</g>
<g>
<path d="M1580 980h20" />
<path d="M1580 1030h20" />
<path d="M780 160h60" />
<path d="M780 330h60" />
</g>
<g stroke="#a07560" stroke-width="3">
<path d="M1579 975v10l11 -5" stroke="none" fill="#a07560" />
<path d="M1579 1025v10l11 -5" stroke="none" fill="#a07560" />
<path d="M841 155v10l-11 -5" stroke="none" fill="#a07560" />
<path d="M841 325v10l-11 -5" stroke="none" fill="#a07560" />
</g>
<g stroke-width="3">
<path d="M1170 247v683h410" />
<path d="M1170 620h50" />
<path d="M1167 617h7v7h-7z" stroke="none" fill="black" />
<path d="M1580 877v56" />
</g>
<g>
<path d="M1580 930h20" />
<path d="M1070 250h100" />
<path d="M1070 420h100" />
<path d="M1580 880h20" />
</g>
<g stroke="#a07560" stroke-width="3">
<path d="M1579 875v10l11 -5" stroke="none" fill="#a07560" />
<path d="M1579 925v10l11 -5" stroke="none" fill="#a07560" />
<path d="M1171 245v10l-11 -5" stroke="none" fill="#a07560" />
<path d="M1171 415v10l-11 -5" stroke="none" fill="#a07560" />
</g>
<g stroke-width="3">
<path d="M440 390h-100v410h810" />
<path d="M1150 797v6" />
</g>
<g>
<path d="M1150 800h70" />
<path d="M270 440h70" />
<path d="M270 490h70" />
</g>
<g stroke="#a07560" stroke-width="3">
<path d="M1149 795v10l11 -5" stroke="none" fill="#a07560" />
<path d="M341 435v10l-11 -5" stroke="none" fill="#a07560" />
<path d="M341 485v10l-11 -5" stroke="none" fill="#a07560" />
</g>
<g stroke-width="3">
<path d="M590 733v-143h120" />
</g>
<g>
<path d="M490 730h100" />
<path d="M490 680h100" />
</g>
<g stroke="#a07560" stroke-width="3">
<path d="M591 725v10l-11 -5" stroke="none" fill="#a07560" />
<path d="M591 675v10l-11 -5" stroke="none" fill="#a07560" />
</g>
<g>
<path d="M440 430h-80v330h290v-130h60" />
<path d="M650 700h290" />
<path d="M938 608h5v5h-5z" stroke="none" fill="black" />
<path d="M938 698h5v5h-5z" stroke="none" fill="black" />
<path d="M300 550h60" />
<path d="M358 548h5v5h-5z" stroke="none" fill="black" />
<path d="M648 698h5v5h-5z" stroke="none" fill="black" />
<path d="M1000 590h-60v110h210v-60h70" />
<path d="M1150 660h70" />
<path d="M1148 658h5v5h-5z" stroke="none" fill="black" />
<path d="M940 610h60" />
<path d="M440 450h-60v330h290v-130h40" />
<path d="M670 720h290" />
<path d="M958 718h5v5h-5z" stroke="none" fill="black" />
<path d="M380 530h60" />
<path d="M380 610h60" />
<path d="M300 630h80" />
<path d="M378 528h5v5h-5z" stroke="none" fill="black" />
<path d="M378 608h5v5h-5z" stroke="none" fill="black" />
<path d="M378 628h5v5h-5z" stroke="none" fill="black" />
<path d="M668 718h5v5h-5z" stroke="none" fill="black" />
<path d="M1000 630h-40v90h230v-40h30" />
</g>
<g stroke-width="3">
<path d="M1760 677v356" />
<path d="M1760 680h20" />
</g>
<g>
<path d="M1650 680h110" />
<path d="M1650 730h110" />
<path d="M1650 780h110" />
<path d="M1650 830h110" />
<path d="M1650 880h110" />
<path d="M1650 930h110" />
<path d="M1650 980h110" />
<path d="M1650 1030h110" />
</g>
<g stroke="#a07560" stroke-width="3">
<path d="M1761 675v10l-11 -5" stroke="none" fill="#a07560" />
<path d="M1761 725v10l-11 -5" stroke="none" fill="#a07560" />
<path d="M1761 775v10l-11 -5" stroke="none" fill="#a07560" />
<path d="M1761 825v10l-11 -5" stroke="none" fill="#a07560" />
<path d="M1761 875v10l-11 -5" stroke="none" fill="#a07560" />
<path d="M1761 925v10l-11 -5" stroke="none" fill="#a07560" />
<path d="M1761 975v10l-11 -5" stroke="none" fill="#a07560" />
<path d="M1761 1025v10l-11 -5" stroke="none" fill="#a07560" />
</g>
<g>
<path d="M80 80h140" />
<path d="M270 80h70v190h100" />
<path d="M340 80h100" />
<path d="M340 210h70v-20h160v170h140" />
<path d="M570 190h140" />
<path d="M570 280h290v170h140" />
<path d="M860 280h140" />
<path d="M860 370h550" />
<path d="M1408 368h5v5h-5z" stroke="none" fill="black" />
<path d="M338 78h5v5h-5z" stroke="none" fill="black" />
<path d="M338 208h5v5h-5z" stroke="none" fill="black" />
<path d="M568 188h5v5h-5z" stroke="none" fill="black" />
<path d="M568 278h5v5h-5z" stroke="none" fill="black" />
<path d="M858 278h5v5h-5z" stroke="none" fill="black" />
<path d="M858 368h5v5h-5z" stroke="none" fill="black" />
<path d="M1450 365h-40v130h40" />
<path d="M440 65h-60v190h60" />
<path d="M380 170h210v175h120" />
<path d="M590 175h120" />
<path d="M590 260h310v185h70v-10h30" />
<path d="M900 265h100" />
<path d="M900 350h470v130h80" />
<path d="M1370 350h80" />
<path d="M1368 348h5v5h-5z" stroke="none" fill="black" />
<path d="M300 190h80" />
<path d="M378 168h5v5h-5z" stroke="none" fill="black" />
<path d="M378 188h5v5h-5z" stroke="none" fill="black" />
<path d="M588 173h5v5h-5z" stroke="none" fill="black" />
<path d="M588 258h5v5h-5z" stroke="none" fill="black" />
<path d="M898 263h5v5h-5z" stroke="none" fill="black" />
<path d="M898 348h5v5h-5z" stroke="none" fill="black" />
</g>
<g stroke-width="3">
<path d="M400 47v196" />
<path d="M400 150h210v280h310" />
<path d="M810 620h110" />
<path d="M917 427h7v7h-7z" stroke="none" fill="black" />
<path d="M1130 597v133h260" />
<path d="M1320 650h70" />
<path d="M1387 727h7v7h-7z" stroke="none" fill="black" />
<path d="M397 147h7v7h-7z" stroke="none" fill="black" />
<path d="M920 247v433h210" />
<path d="M1127 677h7v7h-7z" stroke="none" fill="black" />
<path d="M1390 833v-501" />
<path d="M1100 600h30" />
</g>
<g>
<path d="M400 50h40" />
<path d="M1390 465h60" />
<path d="M1390 335h60" />
<path d="M400 240h40" />
<path d="M610 160h100" />
<path d="M610 330h100" />
<path d="M540 420h70" />
<path d="M1300 830h90" />
<path d="M920 250h80" />
<path d="M920 420h80" />
</g>
<g stroke="#a07560" stroke-width="3">
<path d="M919 245v10l11 -5" stroke="none" fill="#a07560" />
<path d="M919 415v10l11 -5" stroke="none" fill="#a07560" />
<path d="M921 615v10l-11 -5" stroke="none" fill="#a07560" />
<path d="M1391 825v10l-11 -5" stroke="none" fill="#a07560" />
<path d="M1391 645v10l-11 -5" stroke="none" fill="#a07560" />
<path d="M1389 460v10l11 -5" stroke="none" fill="#a07560" />
<path d="M1389 330v10l11 -5" stroke="none" fill="#a07560" />
<path d="M399 45v10l11 -5" stroke="none" fill="#a07560" />
<path d="M399 235v10l11 -5" stroke="none" fill="#a07560" />
<path d="M609 155v10l11 -5" stroke="none" fill="#a07560" />
<path d="M609 325v10l11 -5" stroke="none" fill="#a07560" />
<path d="M611 415v10l-11 -5" stroke="none" fill="#a07560" />
<path d="M1131 595v10l-11 -5" stroke="none" fill="#a07560" />
</g>
<g>
<path d="M540 400h50v170h120" />
<path d="M810 600h90v-50h100" />
<path d="M1100 580h50v20h70" />
<path d="M80 270h20" />
<path d="M220 180h-20v90h120" />
<path d="M318 268h5v5h-5z" stroke="none" fill="black" />
<path d="M150 270h50" />
<path d="M198 268h5v5h-5z" stroke="none" fill="black" />
<path d="M470 300v20h-150v-190h350v280h70v-20" />
<path d="M670 240h210v260h150v-20" />
<path d="M880 330h310v60h160v155h130v-20" />
<path d="M1350 415h130v-20" />
<path d="M1348 413h5v5h-5z" stroke="none" fill="black" />
<path d="M468 128h5v5h-5z" stroke="none" fill="black" />
<path d="M470 130v-20" />
<path d="M738 238h5v5h-5z" stroke="none" fill="black" />
<path d="M740 240v-20" />
<path d="M668 238h5v5h-5z" stroke="none" fill="black" />
<path d="M1028 328h5v5h-5z" stroke="none" fill="black" />
<path d="M1030 330v-20" />
<path d="M878 328h5v5h-5z" stroke="none" fill="black" />
<path d="M80 160h20" />
<path d="M150 160h70" />
</g>
<g stroke-width="3">
<path d="M80 440h120" />
<path d="M320 677v56" />
<path d="M200 437v243h120" />
</g>
<g>
<path d="M200 440h20" />
<path d="M200 490h20" />
<path d="M320 680h120" />
<path d="M320 730h120" />
</g>
<g stroke="#a07560" stroke-width="3">
<path d="M199 435v10l11 -5" stroke="none" fill="#a07560" />
<path d="M199 485v10l11 -5" stroke="none" fill="#a07560" />
<path d="M319 675v10l11 -5" stroke="none" fill="#a07560" />
<path d="M319 725v10l11 -5" stroke="none" fill="#a07560" />
</g>
</g>
</svg>
