<?xml version="1.0" encoding="UTF-8" standalone="no"?>
<!DOCTYPE svg PUBLIC "-//W3C//DTD SVG 1.1//EN"
 "http://www.w3.org/Graphics/SVG/1.1/DTD/svg11.dtd">
<!-- Generated by graphviz version 2.40.1 (20161225.0304)
 -->
<!-- Title: add_accum Pages: 1 -->
<svg width="778pt" height="346pt"
 viewBox="0.00 0.00 778.39 345.77" xmlns="http://www.w3.org/2000/svg" xmlns:xlink="http://www.w3.org/1999/xlink">
<g id="graph0" class="graph" transform="scale(1 1) rotate(0) translate(4 341.7699)">
<title>add_accum</title>
<polygon fill="#ffffff" stroke="transparent" points="-4,4 -4,-341.7699 774.3926,-341.7699 774.3926,4 -4,4"/>
<text text-anchor="middle" x="385.1963" y="-7.8" font-family="Times,serif" font-size="14.00" fill="#000000">add_accum</text>
<!-- n4 -->
<g id="node1" class="node">
<title>n4</title>
<polygon fill="none" stroke="#000000" points="764.6084,-222.5442 764.6084,-237.4558 733.3093,-248 689.0457,-248 657.7466,-237.4558 657.7466,-222.5442 689.0457,-212 733.3093,-212 764.6084,-222.5442"/>
<text text-anchor="middle" x="711.1775" y="-226.3" font-family="Times,serif" font-size="14.00" fill="#000000">accumsum</text>
</g>
<!-- c12 -->
<g id="node6" class="node">
<title>c12</title>
<polygon fill="none" stroke="#000000" points="100.7213,-235 100.7213,-281 195.7213,-281 195.7213,-235 100.7213,-235"/>
<text text-anchor="middle" x="113.7213" y="-265.8" font-family="Times,serif" font-size="14.00" fill="#000000">A</text>
<polyline fill="none" stroke="#000000" points="100.7213,-258 126.7213,-258 "/>
<text text-anchor="middle" x="113.7213" y="-242.8" font-family="Times,serif" font-size="14.00" fill="#000000">B</text>
<polyline fill="none" stroke="#000000" points="126.7213,-235 126.7213,-281 "/>
<text text-anchor="middle" x="148.2213" y="-261.8" font-family="Times,serif" font-size="14.00" fill="#000000">$2</text>
<text text-anchor="middle" x="148.2213" y="-246.8" font-family="Times,serif" font-size="14.00" fill="#000000">$add</text>
<polyline fill="none" stroke="#000000" points="169.7213,-235 169.7213,-281 "/>
<text text-anchor="middle" x="182.7213" y="-254.3" font-family="Times,serif" font-size="14.00" fill="#000000">Y</text>
</g>
<!-- n4&#45;&gt;c12 -->
<g id="edge5" class="edge">
<title>n4:e&#45;&gt;c12:w</title>
<path fill="none" stroke="#000000" stroke-width="3" d="M765.1775,-230C773.1775,-230 770.6658,-242.1794 765.1775,-248 591.2489,-432.4611 449.1411,-274.0523 195.7213,-281.5 195.7213,-281.5 135.0779,-274.1974 110.4415,-271.2307"/>
<polygon fill="#000000" stroke="#000000" stroke-width="3" points="110.5681,-267.7207 100.2213,-270 109.7311,-274.6705 110.5681,-267.7207"/>
</g>
<!-- c18 -->
<g id="node8" class="node">
<title>c18</title>
<polygon fill="none" stroke="#000000" points="233.7167,-172.5 233.7167,-241.5 333.7167,-241.5 333.7167,-172.5 233.7167,-172.5"/>
<text text-anchor="middle" x="246.7167" y="-226.3" font-family="Times,serif" font-size="14.00" fill="#000000">A</text>
<polyline fill="none" stroke="#000000" points="233.7167,-218.5 259.7167,-218.5 "/>
<text text-anchor="middle" x="246.7167" y="-203.3" font-family="Times,serif" font-size="14.00" fill="#000000">B</text>
<polyline fill="none" stroke="#000000" points="233.7167,-195.5 259.7167,-195.5 "/>
<text text-anchor="middle" x="246.7167" y="-180.3" font-family="Times,serif" font-size="14.00" fill="#000000">S</text>
<polyline fill="none" stroke="#000000" points="259.7167,-172.5 259.7167,-241.5 "/>
<text text-anchor="middle" x="283.7167" y="-210.8" font-family="Times,serif" font-size="14.00" fill="#000000">$117</text>
<text text-anchor="middle" x="283.7167" y="-195.8" font-family="Times,serif" font-size="14.00" fill="#000000">$mux</text>
<polyline fill="none" stroke="#000000" points="307.7167,-172.5 307.7167,-241.5 "/>
<text text-anchor="middle" x="320.7167" y="-203.3" font-family="Times,serif" font-size="14.00" fill="#000000">Y</text>
</g>
<!-- n4&#45;&gt;c18 -->
<g id="edge6" class="edge">
<title>n4:e&#45;&gt;c18:w</title>
<path fill="none" stroke="#000000" stroke-width="3" d="M765.1775,-230C765.1775,-230 657.7121,-248 657.7121,-248 634.155,-247.8333 250.2562,-258.7752 233.7167,-242 233.1316,-241.4066 232.5992,-240.7057 232.1375,-239.9453"/>
<polygon fill="#000000" stroke="#000000" stroke-width="3" points="235.6051,-240.4252 233.7167,-230 228.6917,-239.3274 235.6051,-240.4252"/>
</g>
<!-- n5 -->
<g id="node2" class="node">
<title>n5</title>
<polygon fill="none" stroke="#000000" points="64.5826,-131.5442 64.5826,-146.4558 45.7074,-157 19.0139,-157 .1387,-146.4558 .1387,-131.5442 19.0139,-121 45.7074,-121 64.5826,-131.5442"/>
<text text-anchor="middle" x="32.3607" y="-135.3" font-family="Times,serif" font-size="14.00" fill="#000000">clock</text>
</g>
<!-- c16 -->
<g id="node7" class="node">
<title>c16</title>
<polygon fill="none" stroke="#000000" points="507.7121,-106 507.7121,-152 621.7121,-152 621.7121,-106 507.7121,-106"/>
<text text-anchor="middle" x="529.7121" y="-136.8" font-family="Times,serif" font-size="14.00" fill="#000000">CLK</text>
<polyline fill="none" stroke="#000000" points="507.7121,-129 551.7121,-129 "/>
<text text-anchor="middle" x="529.7121" y="-113.8" font-family="Times,serif" font-size="14.00" fill="#000000">D</text>
<polyline fill="none" stroke="#000000" points="551.7121,-106 551.7121,-152 "/>
<text text-anchor="middle" x="573.7121" y="-132.8" font-family="Times,serif" font-size="14.00" fill="#000000">$122</text>
<text text-anchor="middle" x="573.7121" y="-117.8" font-family="Times,serif" font-size="14.00" fill="#000000">$dff</text>
<polyline fill="none" stroke="#000000" points="595.7121,-106 595.7121,-152 "/>
<text text-anchor="middle" x="608.7121" y="-125.3" font-family="Times,serif" font-size="14.00" fill="#000000">Q</text>
</g>
<!-- n5&#45;&gt;c16 -->
<g id="edge7" class="edge">
<title>n5:e&#45;&gt;c16:w</title>
<path fill="none" stroke="#000000" d="M64.3607,-139C257.944,-139 308.8876,-140.9303 497.4563,-140.9982"/>
<polygon fill="#000000" stroke="#000000" points="497.7114,-144.4981 507.7121,-141 497.7127,-137.4981 497.7114,-144.4981"/>
</g>
<!-- n6 -->
<g id="node3" class="node">
<title>n6</title>
<polygon fill="none" stroke="#000000" points="61.9541,-33.5442 61.9541,-48.4558 44.6187,-59 20.1026,-59 2.7672,-48.4558 2.7672,-33.5442 20.1026,-23 44.6187,-23 61.9541,-33.5442"/>
<text text-anchor="middle" x="32.3607" y="-37.3" font-family="Times,serif" font-size="14.00" fill="#000000">reset</text>
</g>
<!-- c19 -->
<g id="node10" class="node">
<title>c19</title>
<polygon fill="none" stroke="#000000" points="371.7121,-43.5 371.7121,-112.5 471.7121,-112.5 471.7121,-43.5 371.7121,-43.5"/>
<text text-anchor="middle" x="384.7121" y="-97.3" font-family="Times,serif" font-size="14.00" fill="#000000">A</text>
<polyline fill="none" stroke="#000000" points="371.7121,-89.5 397.7121,-89.5 "/>
<text text-anchor="middle" x="384.7121" y="-74.3" font-family="Times,serif" font-size="14.00" fill="#000000">B</text>
<polyline fill="none" stroke="#000000" points="371.7121,-66.5 397.7121,-66.5 "/>
<text text-anchor="middle" x="384.7121" y="-51.3" font-family="Times,serif" font-size="14.00" fill="#000000">S</text>
<polyline fill="none" stroke="#000000" points="397.7121,-43.5 397.7121,-112.5 "/>
<text text-anchor="middle" x="421.7121" y="-81.8" font-family="Times,serif" font-size="14.00" fill="#000000">$120</text>
<text text-anchor="middle" x="421.7121" y="-66.8" font-family="Times,serif" font-size="14.00" fill="#000000">$mux</text>
<polyline fill="none" stroke="#000000" points="445.7121,-43.5 445.7121,-112.5 "/>
<text text-anchor="middle" x="458.7121" y="-74.3" font-family="Times,serif" font-size="14.00" fill="#000000">Y</text>
</g>
<!-- n6&#45;&gt;c19 -->
<g id="edge8" class="edge">
<title>n6:e&#45;&gt;c19:w</title>
<path fill="none" stroke="#000000" d="M62.3607,-41C196.4964,-41 232.2839,-54.2981 361.4254,-54.9734"/>
<polygon fill="#000000" stroke="#000000" points="361.703,-58.474 371.7121,-55 361.7212,-51.474 361.703,-58.474"/>
</g>
<!-- n7 -->
<g id="node4" class="node">
<title>n7</title>
<polygon fill="none" stroke="#000000" points="63.2681,-185.5442 63.2681,-200.4558 45.1629,-211 19.5584,-211 1.4532,-200.4558 1.4532,-185.5442 19.5584,-175 45.1629,-175 63.2681,-185.5442"/>
<text text-anchor="middle" x="32.3607" y="-189.3" font-family="Times,serif" font-size="14.00" fill="#000000">valid</text>
</g>
<!-- n7&#45;&gt;c18 -->
<g id="edge9" class="edge">
<title>n7:e&#45;&gt;c18:w</title>
<path fill="none" stroke="#000000" d="M63.3607,-193C135.626,-193 156.0171,-184.824 223.4192,-184.0575"/>
<polygon fill="#000000" stroke="#000000" points="223.7364,-187.5559 233.7167,-184 223.6973,-180.556 223.7364,-187.5559"/>
</g>
<!-- n8 -->
<g id="node5" class="node">
<title>n8</title>
<polygon fill="none" stroke="#000000" points="59.3607,-239.5442 59.3607,-254.4558 43.5444,-265 21.1769,-265 5.3607,-254.4558 5.3607,-239.5442 21.1769,-229 43.5444,-229 59.3607,-239.5442"/>
<text text-anchor="middle" x="32.3607" y="-243.3" font-family="Times,serif" font-size="14.00" fill="#000000">x</text>
</g>
<!-- n8&#45;&gt;c12 -->
<g id="edge10" class="edge">
<title>n8:e&#45;&gt;c12:w</title>
<path fill="none" stroke="#000000" stroke-width="3" d="M59.3607,-247C73.8698,-247 79.785,-246.3774 90.6686,-246.1147"/>
<polygon fill="#000000" stroke="#000000" stroke-width="3" points="90.7619,-249.614 100.7213,-246 90.682,-242.6144 90.7619,-249.614"/>
</g>
<!-- c12&#45;&gt;c18 -->
<g id="edge2" class="edge">
<title>c12:e&#45;&gt;c18:w</title>
<path fill="none" stroke="#000000" stroke-width="3" d="M195.7213,-258C219.7912,-258 209.9227,-221.0169 223.9172,-210.0376"/>
<polygon fill="#000000" stroke="#000000" stroke-width="3" points="225.2013,-213.3039 233.7167,-207 223.1288,-206.6177 225.2013,-213.3039"/>
</g>
<!-- c16&#45;&gt;n4 -->
<g id="edge4" class="edge">
<title>c16:e&#45;&gt;n4:w</title>
<path fill="none" stroke="#000000" stroke-width="3" d="M621.7121,-129C665.2719,-129 619.4609,-213.3865 647.6601,-227.8905"/>
<polygon fill="#000000" stroke="#000000" stroke-width="3" points="647.2064,-231.3714 657.7121,-230 648.6442,-224.5207 647.2064,-231.3714"/>
</g>
<!-- c18&#45;&gt;c19 -->
<g id="edge3" class="edge">
<title>c18:e&#45;&gt;c19:w</title>
<path fill="none" stroke="#000000" stroke-width="3" d="M333.7167,-207C379.6575,-207 331.099,-117.6773 361.5361,-103.0228"/>
<polygon fill="#000000" stroke="#000000" stroke-width="3" points="362.5864,-106.3826 371.7121,-101 361.2216,-99.517 362.5864,-106.3826"/>
</g>
<!-- v0 -->
<g id="node9" class="node">
<title>v0</title>
<ellipse fill="none" stroke="#000000" cx="283.7167" cy="-87" rx="51.9908" ry="18"/>
<text text-anchor="middle" x="283.7167" y="-83.3" font-family="Times,serif" font-size="14.00" fill="#000000">8&#39;00000000</text>
</g>
<!-- v0&#45;&gt;c19 -->
<g id="edge11" class="edge">
<title>v0:e&#45;&gt;c19:w</title>
<path fill="none" stroke="#000000" stroke-width="3" d="M335.7121,-87C348.2102,-87 352.9687,-81.8315 361.7179,-79.328"/>
<polygon fill="#000000" stroke="#000000" stroke-width="3" points="362.2603,-82.7868 371.7121,-78 361.3382,-75.8478 362.2603,-82.7868"/>
</g>
<!-- c19&#45;&gt;c16 -->
<g id="edge1" class="edge">
<title>c19:e&#45;&gt;c16:w</title>
<path fill="none" stroke="#000000" stroke-width="3" d="M471.7121,-78C491.0625,-78 487.0176,-104.2436 497.9603,-113.6749"/>
<polygon fill="#000000" stroke="#000000" stroke-width="3" points="497.1176,-117.0853 507.7121,-117 499.3768,-110.4599 497.1176,-117.0853"/>
</g>
</g>
</svg>
