<?xml version="1.0" encoding="UTF-8" standalone="no"?>
<!DOCTYPE svg PUBLIC "-//W3C//DTD SVG 1.1//EN"
 "http://www.w3.org/Graphics/SVG/1.1/DTD/svg11.dtd">
<!-- Generated by graphviz version 2.40.1 (20161225.0304)
 -->
<!-- Title: add_accum Pages: 1 -->
<svg width="882pt" height="393pt"
 viewBox="0.00 0.00 882.28 393.00" xmlns="http://www.w3.org/2000/svg" xmlns:xlink="http://www.w3.org/1999/xlink">
<g id="graph0" class="graph" transform="scale(1 1) rotate(0) translate(4 389)">
<title>add_accum</title>
<polygon fill="#ffffff" stroke="transparent" points="-4,4 -4,-389 878.2829,-389 878.2829,4 -4,4"/>
<text text-anchor="middle" x="437.1414" y="-7.8" font-family="Times,serif" font-size="14.00" fill="#000000">add_accum</text>
<!-- n6 -->
<g id="node1" class="node">
<title>n6</title>
<polygon fill="none" stroke="#000000" points="868.6084,-219.5442 868.6084,-234.4558 837.3093,-245 793.0457,-245 761.7466,-234.4558 761.7466,-219.5442 793.0457,-209 837.3093,-209 868.6084,-219.5442"/>
<text text-anchor="middle" x="815.1775" y="-223.3" font-family="Times,serif" font-size="14.00" fill="#000000">accumsum</text>
</g>
<!-- c18 -->
<g id="node8" class="node">
<title>c18</title>
<polygon fill="none" stroke="#000000" points="190.7213,-261 190.7213,-353 299.7213,-353 299.7213,-261 190.7213,-261"/>
<text text-anchor="middle" x="205.7213" y="-337.8" font-family="Times,serif" font-size="14.00" fill="#000000">A</text>
<polyline fill="none" stroke="#000000" points="190.7213,-330 220.7213,-330 "/>
<text text-anchor="middle" x="205.7213" y="-314.8" font-family="Times,serif" font-size="14.00" fill="#000000">B</text>
<polyline fill="none" stroke="#000000" points="190.7213,-307 220.7213,-307 "/>
<text text-anchor="middle" x="205.7213" y="-291.8" font-family="Times,serif" font-size="14.00" fill="#000000">BI</text>
<polyline fill="none" stroke="#000000" points="190.7213,-284 220.7213,-284 "/>
<text text-anchor="middle" x="205.7213" y="-268.8" font-family="Times,serif" font-size="14.00" fill="#000000">CI</text>
<polyline fill="none" stroke="#000000" points="220.7213,-261 220.7213,-353 "/>
<text text-anchor="middle" x="242.7213" y="-310.8" font-family="Times,serif" font-size="14.00" fill="#000000">$123</text>
<text text-anchor="middle" x="242.7213" y="-295.8" font-family="Times,serif" font-size="14.00" fill="#000000">$alu</text>
<polyline fill="none" stroke="#000000" points="264.7213,-261 264.7213,-353 "/>
<text text-anchor="middle" x="282.2213" y="-334.3" font-family="Times,serif" font-size="14.00" fill="#000000">CO</text>
<polyline fill="none" stroke="#000000" points="264.7213,-323 299.7213,-323 "/>
<text text-anchor="middle" x="282.2213" y="-303.8" font-family="Times,serif" font-size="14.00" fill="#000000">X</text>
<polyline fill="none" stroke="#000000" points="264.7213,-292 299.7213,-292 "/>
<text text-anchor="middle" x="282.2213" y="-272.8" font-family="Times,serif" font-size="14.00" fill="#000000">Y</text>
</g>
<!-- n6&#45;&gt;c18 -->
<g id="edge8" class="edge">
<title>n6:e&#45;&gt;c18:w</title>
<path fill="none" stroke="#000000" stroke-width="3" d="M869.1775,-227C877.1775,-227 874.3146,-238.8673 869.1775,-245 714.5374,-429.612 567.978,-276.3449 335.7213,-340 319.2411,-344.5168 316.5351,-350.4511 299.7213,-353.5 299.7213,-353.5 226.7375,-330.5051 199.9387,-322.0616"/>
<polygon fill="#000000" stroke="#000000" stroke-width="3" points="200.8109,-318.6669 190.2213,-319 198.7073,-325.3434 200.8109,-318.6669"/>
</g>
<!-- c24 -->
<g id="node10" class="node">
<title>c24</title>
<polygon fill="none" stroke="#000000" points="337.7167,-169.5 337.7167,-238.5 437.7167,-238.5 437.7167,-169.5 337.7167,-169.5"/>
<text text-anchor="middle" x="350.7167" y="-223.3" font-family="Times,serif" font-size="14.00" fill="#000000">A</text>
<polyline fill="none" stroke="#000000" points="337.7167,-215.5 363.7167,-215.5 "/>
<text text-anchor="middle" x="350.7167" y="-200.3" font-family="Times,serif" font-size="14.00" fill="#000000">B</text>
<polyline fill="none" stroke="#000000" points="337.7167,-192.5 363.7167,-192.5 "/>
<text text-anchor="middle" x="350.7167" y="-177.3" font-family="Times,serif" font-size="14.00" fill="#000000">S</text>
<polyline fill="none" stroke="#000000" points="363.7167,-169.5 363.7167,-238.5 "/>
<text text-anchor="middle" x="387.7167" y="-207.8" font-family="Times,serif" font-size="14.00" fill="#000000">$117</text>
<text text-anchor="middle" x="387.7167" y="-192.8" font-family="Times,serif" font-size="14.00" fill="#000000">$mux</text>
<polyline fill="none" stroke="#000000" points="411.7167,-169.5 411.7167,-238.5 "/>
<text text-anchor="middle" x="424.7167" y="-200.3" font-family="Times,serif" font-size="14.00" fill="#000000">Y</text>
</g>
<!-- n6&#45;&gt;c24 -->
<g id="edge9" class="edge">
<title>n6:e&#45;&gt;c24:w</title>
<path fill="none" stroke="#000000" stroke-width="3" d="M869.1775,-227C869.1775,-227 761.7121,-245 761.7121,-245 738.155,-244.8333 354.2562,-255.7752 337.7167,-239 337.1316,-238.4066 336.5992,-237.7057 336.1375,-236.9453"/>
<polygon fill="#000000" stroke="#000000" stroke-width="3" points="339.6051,-237.4252 337.7167,-227 332.6917,-236.3274 339.6051,-237.4252"/>
</g>
<!-- n7 -->
<g id="node2" class="node">
<title>n7</title>
<polygon fill="none" stroke="#000000" points="64.5826,-133.5442 64.5826,-148.4558 45.7074,-159 19.0139,-159 .1387,-148.4558 .1387,-133.5442 19.0139,-123 45.7074,-123 64.5826,-133.5442"/>
<text text-anchor="middle" x="32.3607" y="-137.3" font-family="Times,serif" font-size="14.00" fill="#000000">clock</text>
</g>
<!-- c22 -->
<g id="node9" class="node">
<title>c22</title>
<polygon fill="none" stroke="#000000" points="611.7121,-106 611.7121,-152 725.7121,-152 725.7121,-106 611.7121,-106"/>
<text text-anchor="middle" x="633.7121" y="-136.8" font-family="Times,serif" font-size="14.00" fill="#000000">CLK</text>
<polyline fill="none" stroke="#000000" points="611.7121,-129 655.7121,-129 "/>
<text text-anchor="middle" x="633.7121" y="-113.8" font-family="Times,serif" font-size="14.00" fill="#000000">D</text>
<polyline fill="none" stroke="#000000" points="655.7121,-106 655.7121,-152 "/>
<text text-anchor="middle" x="677.7121" y="-132.8" font-family="Times,serif" font-size="14.00" fill="#000000">$122</text>
<text text-anchor="middle" x="677.7121" y="-117.8" font-family="Times,serif" font-size="14.00" fill="#000000">$dff</text>
<polyline fill="none" stroke="#000000" points="699.7121,-106 699.7121,-152 "/>
<text text-anchor="middle" x="712.7121" y="-125.3" font-family="Times,serif" font-size="14.00" fill="#000000">Q</text>
</g>
<!-- n7&#45;&gt;c22 -->
<g id="edge10" class="edge">
<title>n7:e&#45;&gt;c22:w</title>
<path fill="none" stroke="#000000" d="M64.3607,-141C144.7432,-141 164.8388,-141 245.2213,-141 245.2213,-141 245.2213,-141 387.7167,-141 483.7703,-141 510.3163,-141 601.4827,-141"/>
<polygon fill="#000000" stroke="#000000" points="601.7121,-144.5001 611.7121,-141 601.712,-137.5001 601.7121,-144.5001"/>
</g>
<!-- n8 -->
<g id="node3" class="node">
<title>n8</title>
<polygon fill="none" stroke="#000000" points="61.9541,-33.5442 61.9541,-48.4558 44.6187,-59 20.1026,-59 2.7672,-48.4558 2.7672,-33.5442 20.1026,-23 44.6187,-23 61.9541,-33.5442"/>
<text text-anchor="middle" x="32.3607" y="-37.3" font-family="Times,serif" font-size="14.00" fill="#000000">reset</text>
</g>
<!-- c25 -->
<g id="node12" class="node">
<title>c25</title>
<polygon fill="none" stroke="#000000" points="475.7121,-43.5 475.7121,-112.5 575.7121,-112.5 575.7121,-43.5 475.7121,-43.5"/>
<text text-anchor="middle" x="488.7121" y="-97.3" font-family="Times,serif" font-size="14.00" fill="#000000">A</text>
<polyline fill="none" stroke="#000000" points="475.7121,-89.5 501.7121,-89.5 "/>
<text text-anchor="middle" x="488.7121" y="-74.3" font-family="Times,serif" font-size="14.00" fill="#000000">B</text>
<polyline fill="none" stroke="#000000" points="475.7121,-66.5 501.7121,-66.5 "/>
<text text-anchor="middle" x="488.7121" y="-51.3" font-family="Times,serif" font-size="14.00" fill="#000000">S</text>
<polyline fill="none" stroke="#000000" points="501.7121,-43.5 501.7121,-112.5 "/>
<text text-anchor="middle" x="525.7121" y="-81.8" font-family="Times,serif" font-size="14.00" fill="#000000">$120</text>
<text text-anchor="middle" x="525.7121" y="-66.8" font-family="Times,serif" font-size="14.00" fill="#000000">$mux</text>
<polyline fill="none" stroke="#000000" points="549.7121,-43.5 549.7121,-112.5 "/>
<text text-anchor="middle" x="562.7121" y="-74.3" font-family="Times,serif" font-size="14.00" fill="#000000">Y</text>
</g>
<!-- n8&#45;&gt;c25 -->
<g id="edge11" class="edge">
<title>n8:e&#45;&gt;c25:w</title>
<path fill="none" stroke="#000000" d="M62.3607,-41C242.7671,-41 290.1509,-54.4853 465.6209,-54.9857"/>
<polygon fill="#000000" stroke="#000000" points="465.7071,-58.4857 475.7121,-55 465.7171,-51.4858 465.7071,-58.4857"/>
</g>
<!-- n9 -->
<g id="node4" class="node">
<title>n9</title>
<polygon fill="none" stroke="#000000" points="63.2681,-187.5442 63.2681,-202.4558 45.1629,-213 19.5584,-213 1.4532,-202.4558 1.4532,-187.5442 19.5584,-177 45.1629,-177 63.2681,-187.5442"/>
<text text-anchor="middle" x="32.3607" y="-191.3" font-family="Times,serif" font-size="14.00" fill="#000000">valid</text>
</g>
<!-- n9&#45;&gt;c24 -->
<g id="edge12" class="edge">
<title>n9:e&#45;&gt;c24:w</title>
<path fill="none" stroke="#000000" d="M63.3607,-195C181.9976,-195 213.8396,-181.7817 327.5604,-181.033"/>
<polygon fill="#000000" stroke="#000000" points="327.7282,-184.5326 337.7167,-181 327.7053,-177.5327 327.7282,-184.5326"/>
</g>
<!-- n10 -->
<g id="node5" class="node">
<title>n10</title>
<polygon fill="none" stroke="#000000" points="59.3607,-334.5442 59.3607,-349.4558 43.5444,-360 21.1769,-360 5.3607,-349.4558 5.3607,-334.5442 21.1769,-324 43.5444,-324 59.3607,-334.5442"/>
<text text-anchor="middle" x="32.3607" y="-338.3" font-family="Times,serif" font-size="14.00" fill="#000000">x</text>
</g>
<!-- n10&#45;&gt;c18 -->
<g id="edge2" class="edge">
<title>n10:e&#45;&gt;c18:w</title>
<path fill="none" stroke="#000000" stroke-width="3" d="M59.3607,-342C114.2083,-342 130.4108,-342 180.5788,-342"/>
<polygon fill="#000000" stroke="#000000" stroke-width="3" points="180.7213,-345.5001 190.7213,-342 180.7213,-338.5001 180.7213,-345.5001"/>
</g>
<!-- v0 -->
<g id="node6" class="node">
<title>v0</title>
<ellipse fill="none" stroke="#000000" cx="127.7213" cy="-296" rx="27" ry="18"/>
<text text-anchor="middle" x="127.7213" y="-292.3" font-family="Times,serif" font-size="14.00" fill="#000000">1&#39;0</text>
</g>
<!-- v0&#45;&gt;c18 -->
<g id="edge13" class="edge">
<title>v0:e&#45;&gt;c18:w</title>
<path fill="none" stroke="#000000" d="M154.7213,-296C166.7259,-296 171.9702,-295.4375 180.5946,-295.1563"/>
<polygon fill="#000000" stroke="#000000" points="180.7765,-298.654 190.7213,-295 180.6685,-291.6548 180.7765,-298.654"/>
</g>
<!-- v1 -->
<g id="node7" class="node">
<title>v1</title>
<ellipse fill="none" stroke="#000000" cx="127.7213" cy="-242" rx="27" ry="18"/>
<text text-anchor="middle" x="127.7213" y="-238.3" font-family="Times,serif" font-size="14.00" fill="#000000">1&#39;0</text>
</g>
<!-- v1&#45;&gt;c18 -->
<g id="edge14" class="edge">
<title>v1:e&#45;&gt;c18:w</title>
<path fill="none" stroke="#000000" d="M154.7213,-242C171.4808,-242 171.0926,-261.4257 181.1538,-269.0138"/>
<polygon fill="#000000" stroke="#000000" points="180.1326,-272.3615 190.7213,-272 182.2183,-265.6795 180.1326,-272.3615"/>
</g>
<!-- c18&#45;&gt;c24 -->
<g id="edge5" class="edge">
<title>c18:e&#45;&gt;c24:w</title>
<path fill="none" stroke="#000000" stroke-width="3" d="M299.7213,-276C331.8049,-276 308.4158,-219.3885 327.9313,-206.5625"/>
<polygon fill="#000000" stroke="#000000" stroke-width="3" points="328.9296,-209.9192 337.7167,-204 327.1562,-203.1475 328.9296,-209.9192"/>
</g>
<!-- n1 -->
<g id="node13" class="node">
<title>n1</title>
<polygon fill="none" stroke="#000000" points="387.7167,-385 347.3308,-367 387.7167,-349 428.1026,-367 387.7167,-385"/>
<text text-anchor="middle" x="387.7167" y="-363.3" font-family="Times,serif" font-size="14.00" fill="#000000">$125</text>
</g>
<!-- c18&#45;&gt;n1 -->
<g id="edge1" class="edge">
<title>c18:e&#45;&gt;n1:w</title>
<path fill="none" stroke="#000000" stroke-width="3" d="M299.7213,-338C320.7499,-338 322.7184,-358.6455 337.7908,-365.0972"/>
<polygon fill="#000000" stroke="#000000" stroke-width="3" points="337.2366,-368.5546 347.7167,-367 338.5545,-361.6798 337.2366,-368.5546"/>
</g>
<!-- n2 -->
<g id="node14" class="node">
<title>n2</title>
<polygon fill="none" stroke="#000000" points="387.7167,-293 347.3308,-275 387.7167,-257 428.1026,-275 387.7167,-293"/>
<text text-anchor="middle" x="387.7167" y="-271.3" font-family="Times,serif" font-size="14.00" fill="#000000">$124</text>
</g>
<!-- c18&#45;&gt;n2 -->
<g id="edge3" class="edge">
<title>c18:e&#45;&gt;n2:w</title>
<path fill="none" stroke="#000000" stroke-width="3" d="M299.7213,-308C321.5634,-308 322.2863,-284.5068 337.5286,-277.1652"/>
<polygon fill="#000000" stroke="#000000" stroke-width="3" points="338.6628,-280.5024 347.7167,-275 337.2075,-273.6554 338.6628,-280.5024"/>
</g>
<!-- c22&#45;&gt;n6 -->
<g id="edge7" class="edge">
<title>c22:e&#45;&gt;n6:w</title>
<path fill="none" stroke="#000000" stroke-width="3" d="M725.7121,-129C768.1258,-129 724.3115,-210.88 751.9048,-224.9531"/>
<polygon fill="#000000" stroke="#000000" stroke-width="3" points="751.2079,-228.383 761.7121,-227 752.6381,-221.5307 751.2079,-228.383"/>
</g>
<!-- c24&#45;&gt;c25 -->
<g id="edge6" class="edge">
<title>c24:e&#45;&gt;c25:w</title>
<path fill="none" stroke="#000000" stroke-width="3" d="M437.7167,-204C482.5073,-204 435.9662,-117.2053 465.7727,-102.9656"/>
<polygon fill="#000000" stroke="#000000" stroke-width="3" points="466.5811,-106.3736 475.7121,-101 465.223,-99.5066 466.5811,-106.3736"/>
</g>
<!-- v2 -->
<g id="node11" class="node">
<title>v2</title>
<ellipse fill="none" stroke="#000000" cx="387.7167" cy="-87" rx="51.9908" ry="18"/>
<text text-anchor="middle" x="387.7167" y="-83.3" font-family="Times,serif" font-size="14.00" fill="#000000">8&#39;00000000</text>
</g>
<!-- v2&#45;&gt;c25 -->
<g id="edge15" class="edge">
<title>v2:e&#45;&gt;c25:w</title>
<path fill="none" stroke="#000000" stroke-width="3" d="M439.7121,-87C452.2102,-87 456.9687,-81.8315 465.7179,-79.328"/>
<polygon fill="#000000" stroke="#000000" stroke-width="3" points="466.2603,-82.7868 475.7121,-78 465.3382,-75.8478 466.2603,-82.7868"/>
</g>
<!-- c25&#45;&gt;c22 -->
<g id="edge4" class="edge">
<title>c25:e&#45;&gt;c22:w</title>
<path fill="none" stroke="#000000" stroke-width="3" d="M575.7121,-78C595.0625,-78 591.0176,-104.2436 601.9603,-113.6749"/>
<polygon fill="#000000" stroke="#000000" stroke-width="3" points="601.1176,-117.0853 611.7121,-117 603.3768,-110.4599 601.1176,-117.0853"/>
</g>
</g>
</svg>
