<?xml version="1.0" encoding="UTF-8" standalone="no"?>
<!DOCTYPE svg PUBLIC "-//W3C//DTD SVG 1.1//EN"
 "http://www.w3.org/Graphics/SVG/1.1/DTD/svg11.dtd">
<!-- Generated by graphviz version 2.40.1 (20161225.0304)
 -->
<!-- Title: add_accum Pages: 1 -->
<svg width="515pt" height="239pt"
 viewBox="0.00 0.00 515.45 239.07" xmlns="http://www.w3.org/2000/svg" xmlns:xlink="http://www.w3.org/1999/xlink">
<g id="graph0" class="graph" transform="scale(1 1) rotate(0) translate(4 235.0701)">
<title>add_accum</title>
<polygon fill="#ffffff" stroke="transparent" points="-4,4 -4,-235.0701 511.4483,-235.0701 511.4483,4 -4,4"/>
<text text-anchor="middle" x="253.7242" y="-7.8" font-family="Times,serif" font-size="14.00" fill="#000000">add_accum</text>
<!-- n3 -->
<g id="node1" class="node">
<title>n3</title>
<polygon fill="none" stroke="#000000" points="501.6176,-141.5442 501.6176,-156.4558 470.3185,-167 426.0549,-167 394.7559,-156.4558 394.7559,-141.5442 426.0549,-131 470.3185,-131 501.6176,-141.5442"/>
<text text-anchor="middle" x="448.1867" y="-145.3" font-family="Times,serif" font-size="14.00" fill="#000000">accumsum</text>
</g>
<!-- c11 -->
<g id="node6" class="node">
<title>c11</title>
<polygon fill="none" stroke="#000000" points="100.7213,-178 100.7213,-224 195.7213,-224 195.7213,-178 100.7213,-178"/>
<text text-anchor="middle" x="113.7213" y="-208.8" font-family="Times,serif" font-size="14.00" fill="#000000">A</text>
<polyline fill="none" stroke="#000000" points="100.7213,-201 126.7213,-201 "/>
<text text-anchor="middle" x="113.7213" y="-185.8" font-family="Times,serif" font-size="14.00" fill="#000000">B</text>
<polyline fill="none" stroke="#000000" points="126.7213,-178 126.7213,-224 "/>
<text text-anchor="middle" x="148.2213" y="-204.8" font-family="Times,serif" font-size="14.00" fill="#000000">$2</text>
<text text-anchor="middle" x="148.2213" y="-189.8" font-family="Times,serif" font-size="14.00" fill="#000000">$add</text>
<polyline fill="none" stroke="#000000" points="169.7213,-178 169.7213,-224 "/>
<text text-anchor="middle" x="182.7213" y="-197.3" font-family="Times,serif" font-size="14.00" fill="#000000">Y</text>
</g>
<!-- n3&#45;&gt;c11 -->
<g id="edge3" class="edge">
<title>n3:e&#45;&gt;c11:w</title>
<path fill="none" stroke="#000000" stroke-width="3" d="M502.1867,-149C510.1867,-149 507.2955,-160.8436 502.1867,-167 413.6887,-273.6466 333.7094,-211.6671 195.7213,-224.5 195.7213,-224.5 135.0779,-217.1974 110.4415,-214.2307"/>
<polygon fill="#000000" stroke="#000000" stroke-width="3" points="110.5681,-210.7207 100.2213,-213 109.7311,-217.6705 110.5681,-210.7207"/>
</g>
<!-- p0 -->
<g id="node7" class="node">
<title>p0</title>
<path fill="none" stroke="#000000" d="M346.7213,-168C346.7213,-168 243.7213,-168 243.7213,-168 237.7213,-168 231.7213,-162 231.7213,-156 231.7213,-156 231.7213,-142 231.7213,-142 231.7213,-136 237.7213,-130 243.7213,-130 243.7213,-130 346.7213,-130 346.7213,-130 352.7213,-130 358.7213,-136 358.7213,-142 358.7213,-142 358.7213,-156 358.7213,-156 358.7213,-162 352.7213,-168 346.7213,-168"/>
<text text-anchor="middle" x="295.2213" y="-152.8" font-family="Times,serif" font-size="14.00" fill="#000000">PROC $1</text>
<text text-anchor="middle" x="295.2213" y="-137.8" font-family="Times,serif" font-size="14.00" fill="#000000">../rtl/add_accum.v:8</text>
</g>
<!-- n3&#45;&gt;p0 -->
<g id="edge4" class="edge">
<title>n3:e&#45;&gt;p0:w</title>
<path fill="none" stroke="#000000" stroke-width="3" d="M502.1867,-149C510.1867,-149 507.8238,-161.3235 502.1867,-167 457.2562,-212.2448 422.4849,-167.7778 358.7213,-168 358.7213,-168 271.283,-154.97 241.226,-150.4909"/>
<polygon fill="#000000" stroke="#000000" stroke-width="3" points="241.628,-147.0122 231.2213,-149 240.5962,-153.9358 241.628,-147.0122"/>
</g>
<!-- n4 -->
<g id="node2" class="node">
<title>n4</title>
<polygon fill="none" stroke="#000000" points="63.2681,-141.5442 63.2681,-156.4558 45.1629,-167 19.5584,-167 1.4532,-156.4558 1.4532,-141.5442 19.5584,-131 45.1629,-131 63.2681,-141.5442"/>
<text text-anchor="middle" x="32.3607" y="-145.3" font-family="Times,serif" font-size="14.00" fill="#000000">valid</text>
</g>
<!-- n4&#45;&gt;p0 -->
<g id="edge5" class="edge">
<title>n4:e&#45;&gt;p0:w</title>
<path fill="none" stroke="#000000" d="M63.3607,-149C134.6801,-149 155.0173,-149 221.5571,-149"/>
<polygon fill="#000000" stroke="#000000" points="221.7213,-152.5001 231.7213,-149 221.7213,-145.5001 221.7213,-152.5001"/>
</g>
<!-- n5 -->
<g id="node3" class="node">
<title>n5</title>
<polygon fill="none" stroke="#000000" points="59.3607,-195.5442 59.3607,-210.4558 43.5444,-221 21.1769,-221 5.3607,-210.4558 5.3607,-195.5442 21.1769,-185 43.5444,-185 59.3607,-195.5442"/>
<text text-anchor="middle" x="32.3607" y="-199.3" font-family="Times,serif" font-size="14.00" fill="#000000">x</text>
</g>
<!-- n5&#45;&gt;c11 -->
<g id="edge6" class="edge">
<title>n5:e&#45;&gt;c11:w</title>
<path fill="none" stroke="#000000" stroke-width="3" d="M59.3607,-203C74.8256,-203 79.5841,-194.1099 90.6995,-190.4982"/>
<polygon fill="#000000" stroke="#000000" stroke-width="3" points="91.3487,-193.9402 100.7213,-189 90.3137,-187.0171 91.3487,-193.9402"/>
</g>
<!-- n6 -->
<g id="node4" class="node">
<title>n6</title>
<polygon fill="none" stroke="#000000" points="61.9541,-87.5442 61.9541,-102.4558 44.6187,-113 20.1026,-113 2.7672,-102.4558 2.7672,-87.5442 20.1026,-77 44.6187,-77 61.9541,-87.5442"/>
<text text-anchor="middle" x="32.3607" y="-91.3" font-family="Times,serif" font-size="14.00" fill="#000000">reset</text>
</g>
<!-- n6&#45;&gt;p0 -->
<g id="edge7" class="edge">
<title>n6:e&#45;&gt;p0:w</title>
<path fill="none" stroke="#000000" d="M62.3607,-95C137.8166,-95 151.56,-144.2574 221.4715,-148.6829"/>
<polygon fill="#000000" stroke="#000000" points="221.6178,-152.189 231.7213,-149 221.8344,-145.1923 221.6178,-152.189"/>
</g>
<!-- n7 -->
<g id="node5" class="node">
<title>n7</title>
<polygon fill="none" stroke="#000000" points="64.5826,-33.5442 64.5826,-48.4558 45.7074,-59 19.0139,-59 .1387,-48.4558 .1387,-33.5442 19.0139,-23 45.7074,-23 64.5826,-33.5442"/>
<text text-anchor="middle" x="32.3607" y="-37.3" font-family="Times,serif" font-size="14.00" fill="#000000">clock</text>
</g>
<!-- n7&#45;&gt;p0 -->
<g id="edge8" class="edge">
<title>n7:e&#45;&gt;p0:w</title>
<path fill="none" stroke="#000000" d="M64.3607,-41C127.654,-41 146.7188,-55.94 195.7213,-96 214.495,-111.3477 206.7511,-138.9898 221.6227,-146.8578"/>
<polygon fill="#000000" stroke="#000000" points="221.2127,-150.3487 231.7213,-149 222.6653,-143.501 221.2127,-150.3487"/>
</g>
<!-- c11&#45;&gt;p0 -->
<g id="edge1" class="edge">
<title>c11:e&#45;&gt;p0:w</title>
<path fill="none" stroke="#000000" stroke-width="3" d="M195.7213,-201C219.658,-201 208.5496,-163.2917 222.0823,-152.0971"/>
<polygon fill="#000000" stroke="#000000" stroke-width="3" points="223.2714,-155.3914 231.7213,-149 221.13,-148.7269 223.2714,-155.3914"/>
</g>
<!-- p0&#45;&gt;n3 -->
<g id="edge2" class="edge">
<title>p0:e&#45;&gt;n3:w</title>
<path fill="none" stroke="#000000" stroke-width="3" d="M358.7213,-149C370.7213,-149 375.9713,-149 384.5963,-149"/>
<polygon fill="#000000" stroke="#000000" stroke-width="3" points="384.7213,-152.5001 394.7213,-149 384.7213,-145.5001 384.7213,-152.5001"/>
</g>
</g>
</svg>
