<?xml version="1.0" encoding="UTF-8" standalone="no"?>
<!DOCTYPE svg PUBLIC "-//W3C//DTD SVG 1.1//EN"
 "http://www.w3.org/Graphics/SVG/1.1/DTD/svg11.dtd">
<!-- Generated by graphviz version 2.40.1 (20161225.0304)
 -->
<!-- Title: add_accum Pages: 1 -->
<svg width="1073pt" height="332pt"
 viewBox="0.00 0.00 1072.76 332.48" xmlns="http://www.w3.org/2000/svg" xmlns:xlink="http://www.w3.org/1999/xlink">
<g id="graph0" class="graph" transform="scale(1 1) rotate(0) translate(4 328.4767)">
<title>add_accum</title>
<polygon fill="#ffffff" stroke="transparent" points="-4,4 -4,-328.4767 1068.7615,-328.4767 1068.7615,4 -4,4"/>
<text text-anchor="middle" x="532.3808" y="-7.8" font-family="Times,serif" font-size="14.00" fill="#000000">add_accum</text>
<!-- n7 -->
<g id="node1" class="node">
<title>n7</title>
<polygon fill="none" stroke="#000000" points="1058.9678,-227.5442 1058.9678,-242.4558 1027.6687,-253 983.4051,-253 952.1061,-242.4558 952.1061,-227.5442 983.4051,-217 1027.6687,-217 1058.9678,-227.5442"/>
<text text-anchor="middle" x="1005.5369" y="-231.3" font-family="Times,serif" font-size="14.00" fill="#000000">accumsum</text>
</g>
<!-- c21 -->
<g id="node9" class="node">
<title>c21</title>
<polygon fill="none" stroke="#000000" points="233.7167,-177.5 233.7167,-246.5 333.7167,-246.5 333.7167,-177.5 233.7167,-177.5"/>
<text text-anchor="middle" x="246.7167" y="-231.3" font-family="Times,serif" font-size="14.00" fill="#000000">A</text>
<polyline fill="none" stroke="#000000" points="233.7167,-223.5 259.7167,-223.5 "/>
<text text-anchor="middle" x="246.7167" y="-208.3" font-family="Times,serif" font-size="14.00" fill="#000000">B</text>
<polyline fill="none" stroke="#000000" points="233.7167,-200.5 259.7167,-200.5 "/>
<text text-anchor="middle" x="246.7167" y="-185.3" font-family="Times,serif" font-size="14.00" fill="#000000">S</text>
<polyline fill="none" stroke="#000000" points="259.7167,-177.5 259.7167,-246.5 "/>
<text text-anchor="middle" x="283.7167" y="-215.8" font-family="Times,serif" font-size="14.00" fill="#000000">$117</text>
<text text-anchor="middle" x="283.7167" y="-200.8" font-family="Times,serif" font-size="14.00" fill="#000000">$mux</text>
<polyline fill="none" stroke="#000000" points="307.7167,-177.5 307.7167,-246.5 "/>
<text text-anchor="middle" x="320.7167" y="-208.3" font-family="Times,serif" font-size="14.00" fill="#000000">Y</text>
</g>
<!-- n7&#45;&gt;c21 -->
<g id="edge12" class="edge">
<title>n7:e&#45;&gt;c21:w</title>
<path fill="none" stroke="#000000" stroke-width="3" d="M1059.5369,-235C1059.5369,-235 952.0715,-253 952.0715,-253 797.3566,-248.9987 759.0787,-235 604.3121,-235 509.5121,-235 509.5121,-235 509.5121,-235 431.199,-235 411.9843,-244.3318 333.7167,-247 333.7167,-247 268.9645,-239.2297 243.6707,-236.1945"/>
<polygon fill="#000000" stroke="#000000" stroke-width="3" points="244.0625,-232.7165 233.7167,-235 243.2284,-239.6666 244.0625,-232.7165"/>
</g>
<!-- c22 -->
<g id="node10" class="node">
<title>c22</title>
<polygon fill="none" stroke="#000000" points="100.7213,-240 100.7213,-286 195.7213,-286 195.7213,-240 100.7213,-240"/>
<text text-anchor="middle" x="113.7213" y="-270.8" font-family="Times,serif" font-size="14.00" fill="#000000">A</text>
<polyline fill="none" stroke="#000000" points="100.7213,-263 126.7213,-263 "/>
<text text-anchor="middle" x="113.7213" y="-247.8" font-family="Times,serif" font-size="14.00" fill="#000000">B</text>
<polyline fill="none" stroke="#000000" points="126.7213,-240 126.7213,-286 "/>
<text text-anchor="middle" x="148.2213" y="-266.8" font-family="Times,serif" font-size="14.00" fill="#000000">$2</text>
<text text-anchor="middle" x="148.2213" y="-251.8" font-family="Times,serif" font-size="14.00" fill="#000000">$add</text>
<polyline fill="none" stroke="#000000" points="169.7213,-240 169.7213,-286 "/>
<text text-anchor="middle" x="182.7213" y="-259.3" font-family="Times,serif" font-size="14.00" fill="#000000">Y</text>
</g>
<!-- n7&#45;&gt;c22 -->
<g id="edge13" class="edge">
<title>n7:e&#45;&gt;c22:w</title>
<path fill="none" stroke="#000000" stroke-width="3" d="M1059.5369,-235C1067.5369,-235 1065.0556,-247.2082 1059.5369,-253 919.8063,-399.6466 806.8704,-275 604.3121,-275 421.7121,-275 421.7121,-275 421.7121,-275 321.1418,-275 296.2591,-283.9436 195.7213,-286.5 195.7213,-286.5 135.0779,-279.1974 110.4415,-276.2307"/>
<polygon fill="#000000" stroke="#000000" stroke-width="3" points="110.5681,-272.7207 100.2213,-275 109.7311,-279.6705 110.5681,-272.7207"/>
</g>
<!-- n8 -->
<g id="node2" class="node">
<title>n8</title>
<polygon fill="none" stroke="#000000" points="63.2681,-193.5442 63.2681,-208.4558 45.1629,-219 19.5584,-219 1.4532,-208.4558 1.4532,-193.5442 19.5584,-183 45.1629,-183 63.2681,-193.5442"/>
<text text-anchor="middle" x="32.3607" y="-197.3" font-family="Times,serif" font-size="14.00" fill="#000000">valid</text>
</g>
<!-- x1 -->
<g id="node11" class="node">
<title>x1</title>
<path fill="none" stroke="#000000" d="M163.2213,-217C163.2213,-217 133.2213,-217 133.2213,-217 127.2213,-217 121.2213,-211 121.2213,-205 121.2213,-205 121.2213,-193 121.2213,-193 121.2213,-187 127.2213,-181 133.2213,-181 133.2213,-181 163.2213,-181 163.2213,-181 169.2213,-181 175.2213,-187 175.2213,-193 175.2213,-193 175.2213,-205 175.2213,-205 175.2213,-211 169.2213,-217 163.2213,-217"/>
<text text-anchor="middle" x="148.2213" y="-195.3" font-family="Times,serif" font-size="14.00" fill="#000000">BUF</text>
</g>
<!-- n8&#45;&gt;x1 -->
<g id="edge14" class="edge">
<title>n8:e&#45;&gt;x1:w</title>
<path fill="none" stroke="#000000" d="M63.3607,-201C85.2724,-201 93.1647,-199.5497 110.9144,-199.1191"/>
<polygon fill="#000000" stroke="#000000" points="111.2625,-202.6154 121.2213,-199 111.1815,-195.6159 111.2625,-202.6154"/>
</g>
<!-- n9 -->
<g id="node3" class="node">
<title>n9</title>
<polygon fill="none" stroke="#000000" points="59.3607,-247.5442 59.3607,-262.4558 43.5444,-273 21.1769,-273 5.3607,-262.4558 5.3607,-247.5442 21.1769,-237 43.5444,-237 59.3607,-247.5442"/>
<text text-anchor="middle" x="32.3607" y="-251.3" font-family="Times,serif" font-size="14.00" fill="#000000">x</text>
</g>
<!-- n9&#45;&gt;c22 -->
<g id="edge15" class="edge">
<title>n9:e&#45;&gt;c22:w</title>
<path fill="none" stroke="#000000" stroke-width="3" d="M59.3607,-255C73.9333,-255 79.7617,-252.5095 90.6454,-251.4589"/>
<polygon fill="#000000" stroke="#000000" stroke-width="3" points="90.8909,-254.9514 100.7213,-251 90.5724,-247.9586 90.8909,-254.9514"/>
</g>
<!-- n10 -->
<g id="node4" class="node">
<title>n10</title>
<polygon fill="none" stroke="#000000" points="61.9541,-33.5442 61.9541,-48.4558 44.6187,-59 20.1026,-59 2.7672,-48.4558 2.7672,-33.5442 20.1026,-23 44.6187,-23 61.9541,-33.5442"/>
<text text-anchor="middle" x="32.3607" y="-37.3" font-family="Times,serif" font-size="14.00" fill="#000000">reset</text>
</g>
<!-- x2 -->
<g id="node12" class="node">
<title>x2</title>
<path fill="none" stroke="#000000" d="M298.7167,-59C298.7167,-59 268.7167,-59 268.7167,-59 262.7167,-59 256.7167,-53 256.7167,-47 256.7167,-47 256.7167,-35 256.7167,-35 256.7167,-29 262.7167,-23 268.7167,-23 268.7167,-23 298.7167,-23 298.7167,-23 304.7167,-23 310.7167,-29 310.7167,-35 310.7167,-35 310.7167,-47 310.7167,-47 310.7167,-53 304.7167,-59 298.7167,-59"/>
<text text-anchor="middle" x="283.7167" y="-37.3" font-family="Times,serif" font-size="14.00" fill="#000000">BUF</text>
</g>
<!-- n10&#45;&gt;x2 -->
<g id="edge4" class="edge">
<title>n10:e&#45;&gt;x2:w</title>
<path fill="none" stroke="#000000" d="M62.3607,-41C145.1982,-41 168.4558,-41 246.4059,-41"/>
<polygon fill="#000000" stroke="#000000" points="246.7167,-44.5001 256.7167,-41 246.7167,-37.5001 246.7167,-44.5001"/>
</g>
<!-- n11 -->
<g id="node5" class="node">
<title>n11</title>
<polygon fill="none" stroke="#000000" points="64.5826,-139.5442 64.5826,-154.4558 45.7074,-165 19.0139,-165 .1387,-154.4558 .1387,-139.5442 19.0139,-129 45.7074,-129 64.5826,-139.5442"/>
<text text-anchor="middle" x="32.3607" y="-143.3" font-family="Times,serif" font-size="14.00" fill="#000000">clock</text>
</g>
<!-- c15 -->
<g id="node6" class="node">
<title>c15</title>
<polygon fill="none" stroke="#000000" points="547.3121,-119 547.3121,-165 661.3121,-165 661.3121,-119 547.3121,-119"/>
<text text-anchor="middle" x="569.3121" y="-149.8" font-family="Times,serif" font-size="14.00" fill="#000000">CLK</text>
<polyline fill="none" stroke="#000000" points="547.3121,-142 591.3121,-142 "/>
<text text-anchor="middle" x="569.3121" y="-126.8" font-family="Times,serif" font-size="14.00" fill="#000000">D</text>
<polyline fill="none" stroke="#000000" points="591.3121,-119 591.3121,-165 "/>
<text text-anchor="middle" x="613.3121" y="-145.8" font-family="Times,serif" font-size="14.00" fill="#000000">$122</text>
<text text-anchor="middle" x="613.3121" y="-130.8" font-family="Times,serif" font-size="14.00" fill="#000000">$dff</text>
<polyline fill="none" stroke="#000000" points="635.3121,-119 635.3121,-165 "/>
<text text-anchor="middle" x="648.3121" y="-138.3" font-family="Times,serif" font-size="14.00" fill="#000000">Q</text>
</g>
<!-- n11&#45;&gt;c15 -->
<g id="edge5" class="edge">
<title>n11:e&#45;&gt;c15:w</title>
<path fill="none" stroke="#000000" d="M64.3607,-147C161.8563,-147 186.2211,-149 283.7167,-149 283.7167,-149 283.7167,-149 421.7121,-149 474.0869,-149 489.5482,-153.3945 537.3088,-153.9438"/>
<polygon fill="#000000" stroke="#000000" points="537.2926,-157.4437 547.3121,-154 537.3319,-150.4438 537.2926,-157.4437"/>
</g>
<!-- c15&#45;&gt;n7 -->
<g id="edge11" class="edge">
<title>c15:e&#45;&gt;n7:w</title>
<path fill="none" stroke="#000000" stroke-width="3" d="M661.3121,-142C779.8575,-142 804.1469,-181.9372 916.0715,-221 928.4811,-225.3311 932.9279,-231.2367 942.0353,-233.7671"/>
<polygon fill="#000000" stroke="#000000" stroke-width="3" points="941.7193,-237.2545 952.0715,-235 942.5729,-230.3067 941.7193,-237.2545"/>
</g>
<!-- v0 -->
<g id="node7" class="node">
<title>v0</title>
<ellipse fill="none" stroke="#000000" cx="283.7167" cy="-95" rx="51.9908" ry="18"/>
<text text-anchor="middle" x="283.7167" y="-91.3" font-family="Times,serif" font-size="14.00" fill="#000000">8&#39;00000000</text>
</g>
<!-- c20 -->
<g id="node8" class="node">
<title>c20</title>
<polygon fill="none" stroke="#000000" points="371.7121,-51.5 371.7121,-120.5 471.7121,-120.5 471.7121,-51.5 371.7121,-51.5"/>
<text text-anchor="middle" x="384.7121" y="-105.3" font-family="Times,serif" font-size="14.00" fill="#000000">A</text>
<polyline fill="none" stroke="#000000" points="371.7121,-97.5 397.7121,-97.5 "/>
<text text-anchor="middle" x="384.7121" y="-82.3" font-family="Times,serif" font-size="14.00" fill="#000000">B</text>
<polyline fill="none" stroke="#000000" points="371.7121,-74.5 397.7121,-74.5 "/>
<text text-anchor="middle" x="384.7121" y="-59.3" font-family="Times,serif" font-size="14.00" fill="#000000">S</text>
<polyline fill="none" stroke="#000000" points="397.7121,-51.5 397.7121,-120.5 "/>
<text text-anchor="middle" x="421.7121" y="-89.8" font-family="Times,serif" font-size="14.00" fill="#000000">$120</text>
<text text-anchor="middle" x="421.7121" y="-74.8" font-family="Times,serif" font-size="14.00" fill="#000000">$mux</text>
<polyline fill="none" stroke="#000000" points="445.7121,-51.5 445.7121,-120.5 "/>
<text text-anchor="middle" x="458.7121" y="-82.3" font-family="Times,serif" font-size="14.00" fill="#000000">Y</text>
</g>
<!-- v0&#45;&gt;c20 -->
<g id="edge16" class="edge">
<title>v0:e&#45;&gt;c20:w</title>
<path fill="none" stroke="#000000" stroke-width="3" d="M335.7121,-95C348.2102,-95 352.9687,-89.8315 361.7179,-87.328"/>
<polygon fill="#000000" stroke="#000000" stroke-width="3" points="362.2603,-90.7868 371.7121,-86 361.3382,-83.8478 362.2603,-90.7868"/>
</g>
<!-- n1 -->
<g id="node14" class="node">
<title>n1</title>
<ellipse fill="#000000" stroke="#000000" cx="509.5121" cy="-86" rx="1.8" ry="1.8"/>
</g>
<!-- c20&#45;&gt;n1 -->
<g id="edge1" class="edge">
<title>c20:e&#45;&gt;n1:w</title>
<path fill="none" stroke="#000000" stroke-width="3" d="M471.7121,-86C483.7121,-86 488.9621,-86 497.5871,-86"/>
<polygon fill="#000000" stroke="#000000" stroke-width="3" points="497.7121,-89.5001 507.7121,-86 497.712,-82.5001 497.7121,-89.5001"/>
</g>
<!-- c21&#45;&gt;c20 -->
<g id="edge7" class="edge">
<title>c21:e&#45;&gt;c20:w</title>
<path fill="none" stroke="#000000" stroke-width="3" d="M333.7167,-212C378.5073,-212 331.9662,-125.2053 361.7727,-110.9656"/>
<polygon fill="#000000" stroke="#000000" stroke-width="3" points="362.5811,-114.3736 371.7121,-109 361.223,-107.5066 362.5811,-114.3736"/>
</g>
<!-- c22&#45;&gt;c21 -->
<g id="edge9" class="edge">
<title>c22:e&#45;&gt;c21:w</title>
<path fill="none" stroke="#000000" stroke-width="3" d="M195.7213,-263C219.7912,-263 209.9227,-226.0169 223.9172,-215.0376"/>
<polygon fill="#000000" stroke="#000000" stroke-width="3" points="225.2013,-218.3039 233.7167,-212 223.1288,-211.6177 225.2013,-218.3039"/>
</g>
<!-- x1&#45;&gt;c21 -->
<g id="edge8" class="edge">
<title>x1:e&#45;&gt;c21:w</title>
<path fill="none" stroke="#000000" d="M175.2213,-199C197.8874,-199 205.3178,-191.6147 223.6989,-189.5376"/>
<polygon fill="#000000" stroke="#000000" points="223.9187,-193.031 233.7167,-189 223.5435,-186.041 223.9187,-193.031"/>
</g>
<!-- x2&#45;&gt;c20 -->
<g id="edge6" class="edge">
<title>x2:e&#45;&gt;c20:w</title>
<path fill="none" stroke="#000000" d="M310.7167,-41C335.8203,-41 341.6047,-57.6937 361.7276,-61.9975"/>
<polygon fill="#000000" stroke="#000000" points="361.4124,-65.4834 371.7121,-63 362.1118,-58.5184 361.4124,-65.4834"/>
</g>
<!-- x3 -->
<g id="node13" class="node">
<title>x3</title>
<path fill="none" stroke="#000000" d="M619.3121,-100C619.3121,-100 589.3121,-100 589.3121,-100 583.3121,-100 577.3121,-94 577.3121,-88 577.3121,-88 577.3121,-76 577.3121,-76 577.3121,-70 583.3121,-64 589.3121,-64 589.3121,-64 619.3121,-64 619.3121,-64 625.3121,-64 631.3121,-70 631.3121,-76 631.3121,-76 631.3121,-88 631.3121,-88 631.3121,-94 625.3121,-100 619.3121,-100"/>
<text text-anchor="middle" x="604.3121" y="-78.3" font-family="Times,serif" font-size="14.00" fill="#000000">BUF</text>
</g>
<!-- n6 -->
<g id="node15" class="node">
<title>n6</title>
<polygon fill="none" stroke="#000000" points="806.6918,-100 697.4322,-82 806.6918,-64 915.9514,-82 806.6918,-100"/>
<text text-anchor="middle" x="806.6918" y="-78.3" font-family="Times,serif" font-size="14.00" fill="#000000">$0\accumsum[7:0]</text>
</g>
<!-- x3&#45;&gt;n6 -->
<g id="edge10" class="edge">
<title>x3:e&#45;&gt;n6:w</title>
<path fill="none" stroke="#000000" stroke-width="3" d="M631.3121,-82C657.1264,-82 666.0001,-82 687.5793,-82"/>
<polygon fill="#000000" stroke="#000000" stroke-width="3" points="687.6918,-85.5001 697.6918,-82 687.6918,-78.5001 687.6918,-85.5001"/>
</g>
<!-- n1&#45;&gt;c15 -->
<g id="edge2" class="edge">
<title>n1:e&#45;&gt;c15:w</title>
<path fill="none" stroke="#000000" stroke-width="3" d="M511.3121,-86C532.4337,-86 525.7428,-116.7468 537.7384,-126.8356"/>
<polygon fill="#000000" stroke="#000000" stroke-width="3" points="536.7189,-130.1848 547.3121,-130 538.9157,-123.5385 536.7189,-130.1848"/>
</g>
<!-- n1&#45;&gt;x3 -->
<g id="edge3" class="edge">
<title>n1:e&#45;&gt;x3:w</title>
<path fill="none" stroke="#000000" stroke-width="3" d="M511.3121,-86C537.0258,-86 545.7722,-82.9375 567.2442,-82.1719"/>
<polygon fill="#000000" stroke="#000000" stroke-width="3" points="567.3733,-85.6703 577.3121,-82 567.2538,-78.6713 567.3733,-85.6703"/>
</g>
</g>
</svg>
