<svg xmlns="http://www.w3.org/2000/svg" width="809" height="325" viewBox="0 0 809 325" class="WaveDrom"><g transform="translate(4.5,240.5)" text-anchor="middle" font-size="14" font-family="sans-serif" font-weight="normal"><g transform="translate(0,20)" stroke="black" stroke-width="1" stroke-linecap="round"><line x2="800"></line><line y2="40"></line><line x2="800" y1="40" y2="40"></line><line x1="800" x2="800" y2="40"></line><line x1="700" x2="700" y2="5"></line><line x1="700" x2="700" y1="35" y2="40"></line><line x1="600" x2="600" y2="5"></line><line x1="600" x2="600" y1="35" y2="40"></line><line x1="500" x2="500" y2="5"></line><line x1="500" x2="500" y1="35" y2="40"></line><line x1="400" x2="400" y2="5"></line><line x1="400" x2="400" y1="35" y2="40"></line><line x1="300" x2="300" y2="5"></line><line x1="300" x2="300" y1="35" y2="40"></line><line x1="200" x2="200" y2="5"></line><line x1="200" x2="200" y1="35" y2="40"></line><line x1="100" x2="100" y2="5"></line><line x1="100" x2="100" y1="35" y2="40"></line></g><g><g transform="translate(0,20)"></g><g transform="translate(50,16)"><text x="700">0</text><text>7</text></g><g transform="translate(50,44)"><text x="350"><tspan>data_width</tspan></text></g><g transform="translate(50,80)"></g></g></g><g transform="translate(4.5,160.5)" text-anchor="middle" font-size="14" font-family="sans-serif" font-weight="normal"><g transform="translate(0,20)" stroke="black" stroke-width="1" stroke-linecap="round"><line x2="800"></line><line y2="40"></line><line x2="800" y1="40" y2="40"></line><line x1="800" x2="800" y2="40"></line><line x1="700" x2="700" y2="40"></line><line x1="600" x2="600" y2="40"></line><line x1="500" x2="500" y2="5"></line><line x1="500" x2="500" y1="35" y2="40"></line><line x1="400" x2="400" y2="5"></line><line x1="400" x2="400" y1="35" y2="40"></line><line x1="300" x2="300" y2="5"></line><line x1="300" x2="300" y1="35" y2="40"></line><line x1="200" x2="200" y2="5"></line><line x1="200" x2="200" y1="35" y2="40"></line><line x1="100" x2="100" y2="5"></line><line x1="100" x2="100" y1="35" y2="40"></line></g><g><g transform="translate(0,20)"><rect style="fill-opacity:0.1;fill:hsl(0,100%,50%)" x="0" y="0" width="600" height="40"></rect></g><g transform="translate(50,16)"><text x="700">8</text><text x="600">9</text><text x="500">10</text><text>15</text></g><g transform="translate(50,44)"><text x="700"><tspan>start_stop</tspan></text><text x="600"><tspan>data_size</tspan></text><text x="250"><tspan>...</tspan></text></g><g transform="translate(50,80)"></g></g></g><g transform="translate(4.5,80.5)" text-anchor="middle" font-size="14" font-family="sans-serif" font-weight="normal"><g transform="translate(0,20)" stroke="black" stroke-width="1" stroke-linecap="round"><line x2="800"></line><line y2="40"></line><line x2="800" y1="40" y2="40"></line><line x1="800" x2="800" y2="40"></line><line x1="700" x2="700" y2="5"></line><line x1="700" x2="700" y1="35" y2="40"></line><line x1="600" x2="600" y2="5"></line><line x1="600" x2="600" y1="35" y2="40"></line><line x1="500" x2="500" y2="5"></line><line x1="500" x2="500" y1="35" y2="40"></line><line x1="400" x2="400" y2="5"></line><line x1="400" x2="400" y1="35" y2="40"></line><line x1="300" x2="300" y2="5"></line><line x1="300" x2="300" y1="35" y2="40"></line><line x1="200" x2="200" y2="5"></line><line x1="200" x2="200" y1="35" y2="40"></line><line x1="100" x2="100" y2="5"></line><line x1="100" x2="100" y1="35" y2="40"></line></g><g><g transform="translate(0,20)"><rect style="fill-opacity:0.1;fill:hsl(0,100%,50%)" x="0" y="0" width="800" height="40"></rect></g><g transform="translate(50,16)"><text x="700">16</text><text>23</text></g><g transform="translate(50,44)"><text x="350"><tspan>...</tspan></text></g><g transform="translate(50,80)"></g></g></g><g transform="translate(4.5,0.5)" text-anchor="middle" font-size="14" font-family="sans-serif" font-weight="normal"><g transform="translate(0,20)" stroke="black" stroke-width="1" stroke-linecap="round"><line x2="800"></line><line y2="40"></line><line x2="800" y1="40" y2="40"></line><line x1="800" x2="800" y2="40"></line><line x1="700" x2="700" y2="5"></line><line x1="700" x2="700" y1="35" y2="40"></line><line x1="600" x2="600" y2="5"></line><line x1="600" x2="600" y1="35" y2="40"></line><line x1="500" x2="500" y2="5"></line><line x1="500" x2="500" y1="35" y2="40"></line><line x1="400" x2="400" y2="5"></line><line x1="400" x2="400" y1="35" y2="40"></line><line x1="300" x2="300" y2="5"></line><line x1="300" x2="300" y1="35" y2="40"></line><line x1="200" x2="200" y2="5"></line><line x1="200" x2="200" y1="35" y2="40"></line><line x1="100" x2="100" y2="5"></line><line x1="100" x2="100" y1="35" y2="40"></line></g><g><g transform="translate(0,20)"><rect style="fill-opacity:0.1;fill:hsl(0,100%,50%)" x="0" y="0" width="800" height="40"></rect></g><g transform="translate(50,16)"><text x="700">24</text><text>31</text></g><g transform="translate(50,44)"><text x="350"><tspan>...</tspan></text></g><g transform="translate(50,80)"></g></g></g></svg>
