<svg xmlns="http://www.w3.org/2000/svg" width="809" height="85" viewBox="0 0 809 85" class="WaveDrom"><g transform="translate(4.5,0.5)" text-anchor="middle" font-size="14" font-family="sans-serif" font-weight="normal"><g transform="translate(0,20)" stroke="black" stroke-width="1" stroke-linecap="round"><line x2="800"></line><line y2="40"></line><line x2="800" y1="40" y2="40"></line><line x1="800" x2="800" y2="40"></line><line x1="720" x2="720" y2="5"></line><line x1="720" x2="720" y1="35" y2="40"></line><line x1="640" x2="640" y2="5"></line><line x1="640" x2="640" y1="35" y2="40"></line><line x1="560" x2="560" y2="5"></line><line x1="560" x2="560" y1="35" y2="40"></line><line x1="480" x2="480" y2="5"></line><line x1="480" x2="480" y1="35" y2="40"></line><line x1="400" x2="400" y2="5"></line><line x1="400" x2="400" y1="35" y2="40"></line><line x1="320" x2="320" y2="5"></line><line x1="320" x2="320" y1="35" y2="40"></line><line x1="240" x2="240" y2="5"></line><line x1="240" x2="240" y1="35" y2="40"></line><line x1="160" x2="160" y2="40"></line><line x1="80" x2="80" y2="40"></line></g><g><g transform="translate(0,20)"></g><g transform="translate(40,16)"><text x="720">0</text><text x="160">7</text><text x="80">8</text><text>9</text></g><g transform="translate(40,44)"><text x="440"><tspan>data</tspan></text><text x="80"><tspan>valid</tspan></text><text><tspan>ready</tspan></text></g><g transform="translate(40,80)"></g></g></g></svg>