<svg xmlns="http://www.w3.org/2000/svg" width="809" height="405" viewBox="0 0 809 405" class="WaveDrom"><g transform="translate(4.5,320.5)" text-anchor="middle" font-size="14" font-family="sans-serif" font-weight="normal"><g transform="translate(0,20)" stroke="black" stroke-width="1" stroke-linecap="round"><line x2="800"></line><line y2="40"></line><line x2="800" y1="40" y2="40"></line><line x1="800" x2="800" y2="40"></line><line x1="746.6666666666667" x2="746.6666666666667" y2="5"></line><line x1="746.6666666666667" x2="746.6666666666667" y1="35" y2="40"></line><line x1="693.3333333333334" x2="693.3333333333334" y2="5"></line><line x1="693.3333333333334" x2="693.3333333333334" y1="35" y2="40"></line><line x1="640" x2="640" y2="5"></line><line x1="640" x2="640" y1="35" y2="40"></line><line x1="586.6666666666667" x2="586.6666666666667" y2="5"></line><line x1="586.6666666666667" x2="586.6666666666667" y1="35" y2="40"></line><line x1="533.3333333333334" x2="533.3333333333334" y2="5"></line><line x1="533.3333333333334" x2="533.3333333333334" y1="35" y2="40"></line><line x1="480" x2="480" y2="5"></line><line x1="480" x2="480" y1="35" y2="40"></line><line x1="426.6666666666667" x2="426.6666666666667" y2="5"></line><line x1="426.6666666666667" x2="426.6666666666667" y1="35" y2="40"></line><line x1="373.33333333333337" x2="373.33333333333337" y2="5"></line><line x1="373.33333333333337" x2="373.33333333333337" y1="35" y2="40"></line><line x1="320" x2="320" y2="5"></line><line x1="320" x2="320" y1="35" y2="40"></line><line x1="266.6666666666667" x2="266.6666666666667" y2="5"></line><line x1="266.6666666666667" x2="266.6666666666667" y1="35" y2="40"></line><line x1="213.33333333333334" x2="213.33333333333334" y2="5"></line><line x1="213.33333333333334" x2="213.33333333333334" y1="35" y2="40"></line><line x1="160" x2="160" y2="5"></line><line x1="160" x2="160" y1="35" y2="40"></line><line x1="106.66666666666667" x2="106.66666666666667" y2="5"></line><line x1="106.66666666666667" x2="106.66666666666667" y1="35" y2="40"></line><line x1="53.333333333333336" x2="53.333333333333336" y2="5"></line><line x1="53.333333333333336" x2="53.333333333333336" y1="35" y2="40"></line></g><g><g transform="translate(0,20)"></g><g transform="translate(26.666666666666668,16)"><text x="746.6666666666667">0</text><text>14</text></g><g transform="translate(26.666666666666668,44)"><text x="373.33333333333337"><tspan>data</tspan></text></g><g transform="translate(26.666666666666668,80)"></g></g></g><g transform="translate(4.5,240.5)" text-anchor="middle" font-size="14" font-family="sans-serif" font-weight="normal"><g transform="translate(0,20)" stroke="black" stroke-width="1" stroke-linecap="round"><line x2="800"></line><line y2="40"></line><line x2="800" y1="40" y2="40"></line><line x1="800" x2="800" y2="40"></line><line x1="746.6666666666667" x2="746.6666666666667" y2="5"></line><line x1="746.6666666666667" x2="746.6666666666667" y1="35" y2="40"></line><line x1="693.3333333333334" x2="693.3333333333334" y2="5"></line><line x1="693.3333333333334" x2="693.3333333333334" y1="35" y2="40"></line><line x1="640" x2="640" y2="5"></line><line x1="640" x2="640" y1="35" y2="40"></line><line x1="586.6666666666667" x2="586.6666666666667" y2="5"></line><line x1="586.6666666666667" x2="586.6666666666667" y1="35" y2="40"></line><line x1="533.3333333333334" x2="533.3333333333334" y2="5"></line><line x1="533.3333333333334" x2="533.3333333333334" y1="35" y2="40"></line><line x1="480" x2="480" y2="5"></line><line x1="480" x2="480" y1="35" y2="40"></line><line x1="426.6666666666667" x2="426.6666666666667" y2="5"></line><line x1="426.6666666666667" x2="426.6666666666667" y1="35" y2="40"></line><line x1="373.33333333333337" x2="373.33333333333337" y2="5"></line><line x1="373.33333333333337" x2="373.33333333333337" y1="35" y2="40"></line><line x1="320" x2="320" y2="5"></line><line x1="320" x2="320" y1="35" y2="40"></line><line x1="266.6666666666667" x2="266.6666666666667" y2="5"></line><line x1="266.6666666666667" x2="266.6666666666667" y1="35" y2="40"></line><line x1="213.33333333333334" x2="213.33333333333334" y2="5"></line><line x1="213.33333333333334" x2="213.33333333333334" y1="35" y2="40"></line><line x1="160" x2="160" y2="5"></line><line x1="160" x2="160" y1="35" y2="40"></line><line x1="106.66666666666667" x2="106.66666666666667" y2="5"></line><line x1="106.66666666666667" x2="106.66666666666667" y1="35" y2="40"></line><line x1="53.333333333333336" x2="53.333333333333336" y2="5"></line><line x1="53.333333333333336" x2="53.333333333333336" y1="35" y2="40"></line></g><g><g transform="translate(0,20)"></g><g transform="translate(26.666666666666668,16)"></g><g transform="translate(26.666666666666668,44)"></g><g transform="translate(26.666666666666668,80)"></g></g></g><g transform="translate(4.5,160.5)" text-anchor="middle" font-size="14" font-family="sans-serif" font-weight="normal"><g transform="translate(0,20)" stroke="black" stroke-width="1" stroke-linecap="round"><line x2="800"></line><line y2="40"></line><line x2="800" y1="40" y2="40"></line><line x1="800" x2="800" y2="40"></line><line x1="746.6666666666667" x2="746.6666666666667" y2="5"></line><line x1="746.6666666666667" x2="746.6666666666667" y1="35" y2="40"></line><line x1="693.3333333333334" x2="693.3333333333334" y2="5"></line><line x1="693.3333333333334" x2="693.3333333333334" y1="35" y2="40"></line><line x1="640" x2="640" y2="5"></line><line x1="640" x2="640" y1="35" y2="40"></line><line x1="586.6666666666667" x2="586.6666666666667" y2="5"></line><line x1="586.6666666666667" x2="586.6666666666667" y1="35" y2="40"></line><line x1="533.3333333333334" x2="533.3333333333334" y2="5"></line><line x1="533.3333333333334" x2="533.3333333333334" y1="35" y2="40"></line><line x1="480" x2="480" y2="5"></line><line x1="480" x2="480" y1="35" y2="40"></line><line x1="426.6666666666667" x2="426.6666666666667" y2="5"></line><line x1="426.6666666666667" x2="426.6666666666667" y1="35" y2="40"></line><line x1="373.33333333333337" x2="373.33333333333337" y2="5"></line><line x1="373.33333333333337" x2="373.33333333333337" y1="35" y2="40"></line><line x1="320" x2="320" y2="5"></line><line x1="320" x2="320" y1="35" y2="40"></line><line x1="266.6666666666667" x2="266.6666666666667" y2="5"></line><line x1="266.6666666666667" x2="266.6666666666667" y1="35" y2="40"></line><line x1="213.33333333333334" x2="213.33333333333334" y2="5"></line><line x1="213.33333333333334" x2="213.33333333333334" y1="35" y2="40"></line><line x1="160" x2="160" y2="5"></line><line x1="160" x2="160" y1="35" y2="40"></line><line x1="106.66666666666667" x2="106.66666666666667" y2="5"></line><line x1="106.66666666666667" x2="106.66666666666667" y1="35" y2="40"></line><line x1="53.333333333333336" x2="53.333333333333336" y2="5"></line><line x1="53.333333333333336" x2="53.333333333333336" y1="35" y2="40"></line></g><g><g transform="translate(0,20)"></g><g transform="translate(26.666666666666668,16)"></g><g transform="translate(26.666666666666668,44)"></g><g transform="translate(26.666666666666668,80)"></g></g></g><g transform="translate(4.5,80.5)" text-anchor="middle" font-size="14" font-family="sans-serif" font-weight="normal"><g transform="translate(0,20)" stroke="black" stroke-width="1" stroke-linecap="round"><line x2="800"></line><line y2="40"></line><line x2="800" y1="40" y2="40"></line><line x1="800" x2="800" y2="40"></line><line x1="746.6666666666667" x2="746.6666666666667" y2="5"></line><line x1="746.6666666666667" x2="746.6666666666667" y1="35" y2="40"></line><line x1="693.3333333333334" x2="693.3333333333334" y2="5"></line><line x1="693.3333333333334" x2="693.3333333333334" y1="35" y2="40"></line><line x1="640" x2="640" y2="5"></line><line x1="640" x2="640" y1="35" y2="40"></line><line x1="586.6666666666667" x2="586.6666666666667" y2="5"></line><line x1="586.6666666666667" x2="586.6666666666667" y1="35" y2="40"></line><line x1="533.3333333333334" x2="533.3333333333334" y2="5"></line><line x1="533.3333333333334" x2="533.3333333333334" y1="35" y2="40"></line><line x1="480" x2="480" y2="5"></line><line x1="480" x2="480" y1="35" y2="40"></line><line x1="426.6666666666667" x2="426.6666666666667" y2="5"></line><line x1="426.6666666666667" x2="426.6666666666667" y1="35" y2="40"></line><line x1="373.33333333333337" x2="373.33333333333337" y2="5"></line><line x1="373.33333333333337" x2="373.33333333333337" y1="35" y2="40"></line><line x1="320" x2="320" y2="5"></line><line x1="320" x2="320" y1="35" y2="40"></line><line x1="266.6666666666667" x2="266.6666666666667" y2="5"></line><line x1="266.6666666666667" x2="266.6666666666667" y1="35" y2="40"></line><line x1="213.33333333333334" x2="213.33333333333334" y2="5"></line><line x1="213.33333333333334" x2="213.33333333333334" y1="35" y2="40"></line><line x1="160" x2="160" y2="5"></line><line x1="160" x2="160" y1="35" y2="40"></line><line x1="106.66666666666667" x2="106.66666666666667" y2="5"></line><line x1="106.66666666666667" x2="106.66666666666667" y1="35" y2="40"></line><line x1="53.333333333333336" x2="53.333333333333336" y2="5"></line><line x1="53.333333333333336" x2="53.333333333333336" y1="35" y2="40"></line></g><g><g transform="translate(0,20)"></g><g transform="translate(26.666666666666668,16)"></g><g transform="translate(26.666666666666668,44)"></g><g transform="translate(26.666666666666668,80)"></g></g></g><g transform="translate(4.5,0.5)" text-anchor="middle" font-size="14" font-family="sans-serif" font-weight="normal"><g transform="translate(0,20)" stroke="black" stroke-width="1" stroke-linecap="round"><line x2="800"></line><line y2="40"></line><line x2="800" y1="40" y2="40"></line><line x1="800" x2="800" y2="40"></line><line x1="746.6666666666667" x2="746.6666666666667" y2="5"></line><line x1="746.6666666666667" x2="746.6666666666667" y1="35" y2="40"></line><line x1="693.3333333333334" x2="693.3333333333334" y2="5"></line><line x1="693.3333333333334" x2="693.3333333333334" y1="35" y2="40"></line><line x1="640" x2="640" y2="5"></line><line x1="640" x2="640" y1="35" y2="40"></line><line x1="586.6666666666667" x2="586.6666666666667" y2="40"></line><line x1="533.3333333333334" x2="533.3333333333334" y2="5"></line><line x1="533.3333333333334" x2="533.3333333333334" y1="35" y2="40"></line><line x1="480" x2="480" y2="5"></line><line x1="480" x2="480" y1="35" y2="40"></line><line x1="426.6666666666667" x2="426.6666666666667" y2="5"></line><line x1="426.6666666666667" x2="426.6666666666667" y1="35" y2="40"></line><line x1="373.33333333333337" x2="373.33333333333337" y2="5"></line><line x1="373.33333333333337" x2="373.33333333333337" y1="35" y2="40"></line><line x1="320" x2="320" y2="5"></line><line x1="320" x2="320" y1="35" y2="40"></line><line x1="266.6666666666667" x2="266.6666666666667" y2="5"></line><line x1="266.6666666666667" x2="266.6666666666667" y1="35" y2="40"></line><line x1="213.33333333333334" x2="213.33333333333334" y2="40"></line><line x1="160" x2="160" y2="40"></line><line x1="106.66666666666667" x2="106.66666666666667" y2="40"></line><line x1="53.333333333333336" x2="53.333333333333336" y2="40"></line></g><g><g transform="translate(0,20)"></g><g transform="translate(26.666666666666668,16)"><text x="746.6666666666667">60</text><text x="586.6666666666667">63</text><text x="533.3333333333334">64</text><text x="213.33333333333334">70</text><text x="160">71</text><text x="106.66666666666667">72</text><text x="53.333333333333336">73</text><text>74</text></g><g transform="translate(26.666666666666668,44)"><text x="666.6666666666667"><tspan>data</tspan></text><text x="373.33333333333337"><tspan>data_size</tspan></text><text x="160"><tspan>stop</tspan></text><text x="106.66666666666667"><tspan>start</tspan></text><text x="53.333333333333336"><tspan>valid</tspan></text><text><tspan>ready</tspan></text></g><g transform="translate(26.666666666666668,80)"></g></g></g></svg>