<svg xmlns="http://www.w3.org/2000/svg" width="809" height="85" viewBox="0 0 809 85" class="WaveDrom"><g transform="translate(4.5,0.5)" text-anchor="middle" font-size="14" font-family="sans-serif" font-weight="normal"><g transform="translate(0,20)" stroke="black" stroke-width="1" stroke-linecap="round"><line x2="800"></line><line y2="40"></line><line x2="800" y1="40" y2="40"></line><line x1="800" x2="800" y2="40"></line><line x1="750" x2="750" y2="5"></line><line x1="750" x2="750" y1="35" y2="40"></line><line x1="700" x2="700" y2="5"></line><line x1="700" x2="700" y1="35" y2="40"></line><line x1="650" x2="650" y2="5"></line><line x1="650" x2="650" y1="35" y2="40"></line><line x1="600" x2="600" y2="5"></line><line x1="600" x2="600" y1="35" y2="40"></line><line x1="550" x2="550" y2="5"></line><line x1="550" x2="550" y1="35" y2="40"></line><line x1="500" x2="500" y2="5"></line><line x1="500" x2="500" y1="35" y2="40"></line><line x1="450" x2="450" y2="5"></line><line x1="450" x2="450" y1="35" y2="40"></line><line x1="400" x2="400" y2="40"></line><line x1="350" x2="350" y2="40"></line><line x1="300" x2="300" y2="5"></line><line x1="300" x2="300" y1="35" y2="40"></line><line x1="250" x2="250" y2="5"></line><line x1="250" x2="250" y1="35" y2="40"></line><line x1="200" x2="200" y2="5"></line><line x1="200" x2="200" y1="35" y2="40"></line><line x1="150" x2="150" y2="5"></line><line x1="150" x2="150" y1="35" y2="40"></line><line x1="100" x2="100" y2="5"></line><line x1="100" x2="100" y1="35" y2="40"></line><line x1="50" x2="50" y2="5"></line><line x1="50" x2="50" y1="35" y2="40"></line></g><g><g transform="translate(0,20)"><rect style="fill-opacity:0.1;fill:hsl(0,100%,50%)" x="0" y="0" width="350" height="40"></rect></g><g transform="translate(25,16)"><text x="750">0</text><text x="400">7</text><text x="350">8</text><text x="300">9</text><text>15</text></g><g transform="translate(25,44)"><text x="575"><tspan>16</tspan></text><text x="350"><tspan>1</tspan></text><text x="150"><tspan>...</tspan></text></g><g transform="translate(25,80)"></g></g></g></svg>