<svg id="SvgjsSvg1089" width="1616.64453125" height="447.150390625" xmlns="http://www.w3.org/2000/svg" version="1.1" xmlns:xlink="http://www.w3.org/1999/xlink" xmlns:svgjs="http://svgjs.com/svgjs"><defs id="SvgjsDefs1090"></defs><g id="SvgjsG1091"><g id="SvgjsG1092"><rect id="SvgjsRect1093" width="1616.64453125" height="447.150390625" fill="#ffffff" stroke="#777777" stroke-width="1" x="0" y="0"></rect></g><g id="SvgjsG1094"><g id="SvgjsG1095"><rect id="SvgjsRect1096" width="1487.900390625" height="362.455078125" fill="#ffffff" stroke="#777777" stroke-width="1" x="60.701171875" y="12"></rect></g><text id="SvgjsText1097" font-family="Helvetica, Arial, sans-serif" fill="#666666" x="716.8310546875" style="font-size: 16px;" y="10.203125"><tspan id="SvgjsTspan1098" dy="20.8" x="716.8310546875">fast_comms_full_duplex</tspan></text><g id="SvgjsG1099"><line id="SvgjsLine1100" x1="60.701171875" y1="248.759765625" x2="72.701171875" y2="248.759765625" stroke="#000000" stroke-width="6"></line><rect id="SvgjsRect1101" width="12" height="12" x="66.701171875" y="242.759765625"></rect></g><g id="SvgjsG1102"><line id="SvgjsLine1103" x1="1536.6015625" y1="256.1015625" x2="1548.6015625" y2="256.1015625" stroke="#000000" stroke-width="6"></line><rect id="SvgjsRect1104" width="12" height="12" x="1542.6015625" y="250.1015625"></rect></g><g id="SvgjsG1105"><line id="SvgjsLine1106" x1="290.609375" y1="248.759765625" x2="310.609375" y2="248.759765625" stroke="#000000" stroke-width="6"></line><rect id="SvgjsRect1107" width="12" height="12" x="304.609375" y="242.759765625"></rect></g><g id="SvgjsG1108"><line id="SvgjsLine1109" x1="1306.03515625" y1="256.1015625" x2="1326.03515625" y2="256.1015625" stroke="#000000" stroke-width="6"></line><rect id="SvgjsRect1110" width="12" height="12" x="1320.03515625" y="250.1015625"></rect></g><g id="SvgjsG1111"><line id="SvgjsLine1112" x1="497.41015625" y1="248.759765625" x2="517.41015625" y2="248.759765625" stroke="#000000" stroke-width="6"></line><rect id="SvgjsRect1113" width="12" height="12" x="511.41015625" y="242.759765625"></rect></g><g id="SvgjsG1114"><line id="SvgjsLine1115" x1="1085.88671875" y1="256.1015625" x2="1105.88671875" y2="256.1015625" stroke="#000000" stroke-width="6"></line><rect id="SvgjsRect1116" width="12" height="12" x="1099.88671875" y="250.1015625"></rect></g><g id="SvgjsG1117"><polyline id="SvgjsPolyline1118" points="917.1484375,374.455078125 917.1484375,362.455078125 905.1484375,362.455078125 905.1484375,342.455078125 1001.2786458333334,342.455078125 1001.2786458333334,322.455078125" fill="none" stroke="#000000" stroke-width="1"></polyline><rect id="SvgjsRect1119" width="6" height="6" x="998.2786458333334" y="319.455078125"></rect></g><g id="SvgjsG1120"><polyline id="SvgjsPolyline1121" points="895.1484375,374.455078125 895.1484375,332.455078125 963.7135416666666,332.455078125 963.7135416666666,318.470703125" fill="none" stroke="#000000" stroke-width="6"></polyline><rect id="SvgjsRect1122" width="12" height="12" x="957.7135416666666" y="312.470703125"></rect></g><g id="SvgjsG1123"><polyline id="SvgjsPolyline1124" points="637.1360677083334,322.455078125 637.1360677083334,332.455078125 688.1484375,332.455078125 688.1484375,374.455078125" fill="none" stroke="#000000" stroke-width="1"></polyline><rect id="SvgjsRect1125" width="6" height="6" x="685.1484375" y="371.455078125"></rect></g><g id="SvgjsG1126"><polyline id="SvgjsPolyline1127" points="597.1236979166666,318.470703125 597.1236979166666,342.455078125 698.1484375,342.455078125 698.1484375,362.455078125 710.1484375,362.455078125 710.1484375,374.455078125" fill="none" stroke="#000000" stroke-width="6"></polyline><rect id="SvgjsRect1128" width="12" height="12" x="704.1484375" y="368.455078125"></rect></g><g id="SvgjsG1129"><g id="SvgjsG1130"><rect id="SvgjsRect1131" width="136" height="30" fill="#ffffff" stroke="#777777" stroke-width="1" x="739.1484375" y="49"></rect></g><text id="SvgjsText1132" font-family="Helvetica, Arial, sans-serif" fill="#666666" x="762.4609375" style="font-size: 16px;" y="47.203125"><tspan id="SvgjsTspan1133" dy="20.8" x="762.4609375">control logic</tspan></text><rect id="SvgjsRect1134" width="18" height="69.373046875" x="831.1484375" y="79" fill="#777777" stroke-width="0"></rect><text id="SvgjsText1135" font-family="Helvetica, Arial, sans-serif" fill="#ffffff" style="font-size: 12px;" transform="matrix(6.123233995736766e-17,1,-1,6.123233995736766e-17,0,0)" x="84" y="-857.9453125"><tspan id="SvgjsTspan1136" dy="20.8" x="84">out_control</tspan></text><rect id="SvgjsRect1137" width="18" height="65.37109375" x="809.1484375" y="79" fill="#777777" stroke-width="0"></rect><text id="SvgjsText1138" font-family="Helvetica, Arial, sans-serif" fill="#ffffff" style="font-size: 12px;" transform="matrix(6.123233995736766e-17,1,-1,6.123233995736766e-17,0,0)" x="84" y="-835.9453125"><tspan id="SvgjsTspan1139" dy="20.8" x="84">out_status</tspan></text><rect id="SvgjsRect1140" width="18" height="64.708984375" x="787.1484375" y="79" fill="#777777" stroke-width="0"></rect><text id="SvgjsText1141" font-family="Helvetica, Arial, sans-serif" fill="#ffffff" style="font-size: 12px;" transform="matrix(6.123233995736766e-17,1,-1,6.123233995736766e-17,0,0)" x="84" y="-813.9453125"><tspan id="SvgjsTspan1142" dy="20.8" x="84">escape_in</tspan></text><rect id="SvgjsRect1143" width="18" height="72.05078125" x="765.1484375" y="79" fill="#777777" stroke-width="0"></rect><text id="SvgjsText1144" font-family="Helvetica, Arial, sans-serif" fill="#ffffff" style="font-size: 12px;" transform="matrix(6.123233995736766e-17,1,-1,6.123233995736766e-17,0,0)" x="84" y="-791.9453125"><tspan id="SvgjsTspan1145" dy="20.8" x="84">escape_out</tspan></text><rect id="SvgjsRect1146" width="18" height="62.03125" x="743.1484375" y="79" fill="#777777" stroke-width="0"></rect><text id="SvgjsText1147" font-family="Helvetica, Arial, sans-serif" fill="#ffffff" style="font-size: 12px;" transform="matrix(6.123233995736766e-17,1,-1,6.123233995736766e-17,0,0)" x="84" y="-769.9453125"><tspan id="SvgjsTspan1148" dy="20.8" x="84">in_control</tspan></text><rect id="SvgjsRect1149" width="18" height="58.029296875" x="853.1484375" y="79" fill="#777777" stroke-width="0"></rect><text id="SvgjsText1150" font-family="Helvetica, Arial, sans-serif" fill="#ffffff" style="font-size: 12px;" transform="matrix(6.123233995736766e-17,1,-1,6.123233995736766e-17,0,0)" x="84" y="-879.9453125"><tspan id="SvgjsTspan1151" dy="20.8" x="84">in_status</tspan></text></g><g id="SvgjsG1152"><g id="SvgjsG1153"><rect id="SvgjsRect1154" width="94.6953125" height="26" fill="#ffffff" stroke="#777777" stroke-width="1" x="935.1484375" y="243.1015625"></rect></g><text id="SvgjsText1155" font-family="Helvetica, Arial, sans-serif" fill="#666666" x="940.1484375" style="font-size: 12px;" y="238.3046875"><tspan id="SvgjsTspan1156" dy="20.8" x="940.1484375">fast_comms_in</tspan></text><rect id="SvgjsRect1157" width="18" height="53.353515625" x="992.2786458333334" y="269.1015625" fill="#777777" stroke-width="0"></rect><text id="SvgjsText1158" font-family="Helvetica, Arial, sans-serif" fill="#ffffff" style="font-size: 12px;" transform="matrix(6.123233995736766e-17,1,-1,6.123233995736766e-17,0,0)" x="274.1015625" y="-1019.0755208333334"><tspan id="SvgjsTspan1159" dy="20.8" x="274.1015625">clock_in</tspan></text><rect id="SvgjsRect1160" width="18" height="49.369140625" x="954.7135416666666" y="269.1015625" fill="#777777" stroke-width="0"></rect><text id="SvgjsText1161" font-family="Helvetica, Arial, sans-serif" fill="#ffffff" style="font-size: 12px;" transform="matrix(6.123233995736766e-17,1,-1,6.123233995736766e-17,0,0)" x="274.1015625" y="-981.5104166666666"><tspan id="SvgjsTspan1162" dy="20.8" x="274.1015625">data_in</tspan></text><rect id="SvgjsRect1163" width="56.04296875" height="18" x="1029.84375" y="247.1015625" fill="#777777" stroke-width="0"></rect><text id="SvgjsText1164" font-family="Helvetica, Arial, sans-serif" fill="#ffffff" style="font-size: 12px;" x="1034.84375" y="239.3046875"><tspan id="SvgjsTspan1165" dy="20.8" x="1034.84375">pipe_out</tspan></text></g><g id="SvgjsG1166"><g id="SvgjsG1167"><rect id="SvgjsRect1168" width="102.037109375" height="26" fill="#ffffff" stroke="#777777" stroke-width="1" x="566.111328125" y="235.759765625"></rect></g><text id="SvgjsText1169" font-family="Helvetica, Arial, sans-serif" fill="#666666" x="571.111328125" style="font-size: 12px;" y="230.962890625"><tspan id="SvgjsTspan1170" dy="20.8" x="571.111328125">fast_comms_out</tspan></text><rect id="SvgjsRect1171" width="48.701171875" height="18" x="517.41015625" y="239.759765625" fill="#777777" stroke-width="0"></rect><text id="SvgjsText1172" font-family="Helvetica, Arial, sans-serif" fill="#ffffff" style="font-size: 12px;" x="522.41015625" y="231.962890625"><tspan id="SvgjsTspan1173" dy="20.8" x="522.41015625">pipe_in</tspan></text><rect id="SvgjsRect1174" width="18" height="60.6953125" x="628.1360677083334" y="261.759765625" fill="#777777" stroke-width="0"></rect><text id="SvgjsText1175" font-family="Helvetica, Arial, sans-serif" fill="#ffffff" style="font-size: 12px;" transform="matrix(6.123233995736766e-17,1,-1,6.123233995736766e-17,0,0)" x="266.759765625" y="-654.9329427083334"><tspan id="SvgjsTspan1176" dy="20.8" x="266.759765625">clock_out</tspan></text><rect id="SvgjsRect1177" width="18" height="56.7109375" x="588.1236979166666" y="261.759765625" fill="#777777" stroke-width="0"></rect><text id="SvgjsText1178" font-family="Helvetica, Arial, sans-serif" fill="#ffffff" style="font-size: 12px;" transform="matrix(6.123233995736766e-17,1,-1,6.123233995736766e-17,0,0)" x="266.759765625" y="-614.9205729166666"><tspan id="SvgjsTspan1179" dy="20.8" x="266.759765625">data_out</tspan></text></g><g id="SvgjsG1180"><g id="SvgjsG1181"><rect id="SvgjsRect1182" width="105.822265625" height="26" fill="#ffffff" stroke="#777777" stroke-width="1" x="1374.736328125" y="243.1015625"></rect></g><text id="SvgjsText1183" font-family="Helvetica, Arial, sans-serif" fill="#666666" x="1379.736328125" style="font-size: 12px;" y="238.3046875"><tspan id="SvgjsTspan1184" dy="20.8" x="1379.736328125">comms_in_buffer</tspan></text><rect id="SvgjsRect1185" width="48.701171875" height="18" x="1326.03515625" y="247.1015625" fill="#777777" stroke-width="0"></rect><text id="SvgjsText1186" font-family="Helvetica, Arial, sans-serif" fill="#ffffff" style="font-size: 12px;" x="1331.03515625" y="239.3046875"><tspan id="SvgjsTspan1187" dy="20.8" x="1331.03515625">pipe_in</tspan></text><rect id="SvgjsRect1188" width="18" height="46.017578125" x="1398.0104166666667" y="197.083984375" fill="#777777" stroke-width="0"></rect><text id="SvgjsText1189" font-family="Helvetica, Arial, sans-serif" fill="#ffffff" style="font-size: 12px;" transform="matrix(6.123233995736766e-17,1,-1,6.123233995736766e-17,0,0)" x="202.083984375" y="-1424.8072916666667"><tspan id="SvgjsTspan1190" dy="20.8" x="202.083984375">control</tspan></text><rect id="SvgjsRect1191" width="18" height="42.015625" x="1439.2845052083333" y="201.0859375" fill="#777777" stroke-width="0"></rect><text id="SvgjsText1192" font-family="Helvetica, Arial, sans-serif" fill="#ffffff" style="font-size: 12px;" transform="matrix(6.123233995736766e-17,1,-1,6.123233995736766e-17,0,0)" x="206.0859375" y="-1466.0813802083333"><tspan id="SvgjsTspan1193" dy="20.8" x="206.0859375">status</tspan></text><rect id="SvgjsRect1194" width="56.04296875" height="18" x="1480.55859375" y="247.1015625" fill="#777777" stroke-width="0"></rect><text id="SvgjsText1195" font-family="Helvetica, Arial, sans-serif" fill="#ffffff" style="font-size: 12px;" x="1485.55859375" y="239.3046875"><tspan id="SvgjsTspan1196" dy="20.8" x="1485.55859375">pipe_out</tspan></text></g><g id="SvgjsG1197"><g id="SvgjsG1198"><rect id="SvgjsRect1199" width="113.1640625" height="26" fill="#ffffff" stroke="#777777" stroke-width="1" x="121.40234375" y="235.759765625"></rect></g><text id="SvgjsText1200" font-family="Helvetica, Arial, sans-serif" fill="#666666" x="126.40234375" style="font-size: 12px;" y="230.962890625"><tspan id="SvgjsTspan1201" dy="20.8" x="126.40234375">comms_out_buffer</tspan></text><rect id="SvgjsRect1202" width="48.701171875" height="18" x="72.701171875" y="239.759765625" fill="#777777" stroke-width="0"></rect><text id="SvgjsText1203" font-family="Helvetica, Arial, sans-serif" fill="#ffffff" style="font-size: 12px;" x="77.701171875" y="231.962890625"><tspan id="SvgjsTspan1204" dy="20.8" x="77.701171875">pipe_in</tspan></text><rect id="SvgjsRect1205" width="18" height="46.017578125" x="147.12369791666666" y="189.7421875" fill="#777777" stroke-width="0"></rect><text id="SvgjsText1206" font-family="Helvetica, Arial, sans-serif" fill="#ffffff" style="font-size: 12px;" transform="matrix(6.123233995736766e-17,1,-1,6.123233995736766e-17,0,0)" x="194.7421875" y="-173.92057291666666"><tspan id="SvgjsTspan1207" dy="20.8" x="194.7421875">control</tspan></text><rect id="SvgjsRect1208" width="18" height="42.015625" x="190.84505208333334" y="193.744140625" fill="#777777" stroke-width="0"></rect><text id="SvgjsText1209" font-family="Helvetica, Arial, sans-serif" fill="#ffffff" style="font-size: 12px;" transform="matrix(6.123233995736766e-17,1,-1,6.123233995736766e-17,0,0)" x="198.744140625" y="-217.64192708333334"><tspan id="SvgjsTspan1210" dy="20.8" x="198.744140625">status</tspan></text><rect id="SvgjsRect1211" width="56.04296875" height="18" x="234.56640625" y="239.759765625" fill="#777777" stroke-width="0"></rect><text id="SvgjsText1212" font-family="Helvetica, Arial, sans-serif" fill="#ffffff" style="font-size: 12px;" x="239.56640625" y="231.962890625"><tspan id="SvgjsTspan1213" dy="20.8" x="239.56640625">pipe_out</tspan></text></g><g id="SvgjsG1214"><g id="SvgjsG1215"><rect id="SvgjsRect1216" width="82.056640625" height="26" fill="#ffffff" stroke="#777777" stroke-width="1" x="359.310546875" y="235.759765625"></rect></g><text id="SvgjsText1217" font-family="Helvetica, Arial, sans-serif" fill="#666666" x="364.310546875" style="font-size: 12px;" y="230.962890625"><tspan id="SvgjsTspan1218" dy="20.8" x="364.310546875">pipe_escape</tspan></text><rect id="SvgjsRect1219" width="48.701171875" height="18" x="310.609375" y="239.759765625" fill="#777777" stroke-width="0"></rect><text id="SvgjsText1220" font-family="Helvetica, Arial, sans-serif" fill="#ffffff" style="font-size: 12px;" x="315.609375" y="231.962890625"><tspan id="SvgjsTspan1221" dy="20.8" x="315.609375">pipe_in</tspan></text><rect id="SvgjsRect1222" width="18" height="64.708984375" x="391.3388671875" y="171.05078125" fill="#777777" stroke-width="0"></rect><text id="SvgjsText1223" font-family="Helvetica, Arial, sans-serif" fill="#ffffff" style="font-size: 12px;" transform="matrix(6.123233995736766e-17,1,-1,6.123233995736766e-17,0,0)" x="176.05078125" y="-418.1357421875"><tspan id="SvgjsTspan1224" dy="20.8" x="176.05078125">escape_in</tspan></text><rect id="SvgjsRect1225" width="56.04296875" height="18" x="441.3671875" y="239.759765625" fill="#777777" stroke-width="0"></rect><text id="SvgjsText1226" font-family="Helvetica, Arial, sans-serif" fill="#ffffff" style="font-size: 12px;" x="446.3671875" y="231.962890625"><tspan id="SvgjsTspan1227" dy="20.8" x="446.3671875">pipe_out</tspan></text></g><g id="SvgjsG1228"><g id="SvgjsG1229"><rect id="SvgjsRect1230" width="95.404296875" height="26" fill="#ffffff" stroke="#777777" stroke-width="1" x="1154.587890625" y="243.1015625"></rect></g><text id="SvgjsText1231" font-family="Helvetica, Arial, sans-serif" fill="#666666" x="1159.587890625" style="font-size: 12px;" y="238.3046875"><tspan id="SvgjsTspan1232" dy="20.8" x="1159.587890625">pipe_unescape</tspan></text><rect id="SvgjsRect1233" width="48.701171875" height="18" x="1105.88671875" y="247.1015625" fill="#777777" stroke-width="0"></rect><text id="SvgjsText1234" font-family="Helvetica, Arial, sans-serif" fill="#ffffff" style="font-size: 12px;" x="1110.88671875" y="239.3046875"><tspan id="SvgjsTspan1235" dy="20.8" x="1110.88671875">pipe_in</tspan></text><rect id="SvgjsRect1236" width="18" height="72.05078125" x="1193.2900390625" y="171.05078125" fill="#777777" stroke-width="0"></rect><text id="SvgjsText1237" font-family="Helvetica, Arial, sans-serif" fill="#ffffff" style="font-size: 12px;" transform="matrix(6.123233995736766e-17,1,-1,6.123233995736766e-17,0,0)" x="176.05078125" y="-1220.0869140625"><tspan id="SvgjsTspan1238" dy="20.8" x="176.05078125">escape_out</tspan></text><rect id="SvgjsRect1239" width="56.04296875" height="18" x="1249.9921875" y="247.1015625" fill="#777777" stroke-width="0"></rect><text id="SvgjsText1240" font-family="Helvetica, Arial, sans-serif" fill="#ffffff" style="font-size: 12px;" x="1254.9921875" y="239.3046875"><tspan id="SvgjsTspan1241" dy="20.8" x="1254.9921875">pipe_out</tspan></text></g><rect id="SvgjsRect1242" width="48.701171875" height="18" x="12" y="239.759765625" fill="#777777" stroke-width="0"></rect><text id="SvgjsText1243" font-family="Helvetica, Arial, sans-serif" fill="#ffffff" style="font-size: 12px;" x="17" y="231.962890625"><tspan id="SvgjsTspan1244" dy="20.8" x="17">pipe_in</tspan></text><rect id="SvgjsRect1245" width="18" height="53.353515625" x="908.1484375" y="374.455078125" fill="#777777" stroke-width="0"></rect><text id="SvgjsText1246" font-family="Helvetica, Arial, sans-serif" fill="#ffffff" style="font-size: 12px;" transform="matrix(6.123233995736766e-17,1,-1,6.123233995736766e-17,0,0)" x="379.455078125" y="-934.9453125"><tspan id="SvgjsTspan1247" dy="20.8" x="379.455078125">clock_in</tspan></text><rect id="SvgjsRect1248" width="18" height="49.369140625" x="886.1484375" y="374.455078125" fill="#777777" stroke-width="0"></rect><text id="SvgjsText1249" font-family="Helvetica, Arial, sans-serif" fill="#ffffff" style="font-size: 12px;" transform="matrix(6.123233995736766e-17,1,-1,6.123233995736766e-17,0,0)" x="379.455078125" y="-912.9453125"><tspan id="SvgjsTspan1250" dy="20.8" x="379.455078125">data_in</tspan></text><rect id="SvgjsRect1251" width="18" height="60.6953125" x="679.1484375" y="374.455078125" fill="#777777" stroke-width="0"></rect><text id="SvgjsText1252" font-family="Helvetica, Arial, sans-serif" fill="#ffffff" style="font-size: 12px;" transform="matrix(6.123233995736766e-17,1,-1,6.123233995736766e-17,0,0)" x="379.455078125" y="-705.9453125"><tspan id="SvgjsTspan1253" dy="20.8" x="379.455078125">clock_out</tspan></text><rect id="SvgjsRect1254" width="18" height="56.7109375" x="701.1484375" y="374.455078125" fill="#777777" stroke-width="0"></rect><text id="SvgjsText1255" font-family="Helvetica, Arial, sans-serif" fill="#ffffff" style="font-size: 12px;" transform="matrix(6.123233995736766e-17,1,-1,6.123233995736766e-17,0,0)" x="379.455078125" y="-727.9453125"><tspan id="SvgjsTspan1256" dy="20.8" x="379.455078125">data_out</tspan></text><rect id="SvgjsRect1257" width="56.04296875" height="18" x="1548.6015625" y="247.1015625" fill="#777777" stroke-width="0"></rect><text id="SvgjsText1258" font-family="Helvetica, Arial, sans-serif" fill="#ffffff" style="font-size: 12px;" x="1553.6015625" y="239.3046875"><tspan id="SvgjsTspan1259" dy="20.8" x="1553.6015625">pipe_out</tspan></text></g></g></svg>