<svg xmlns="http://www.w3.org/2000/svg" width="809" height="85" viewBox="0 0 809 85" class="WaveDrom"><g transform="translate(4.5,0.5)" text-anchor="middle" font-size="14" font-family="sans-serif" font-weight="normal"><g transform="translate(0,20)" stroke="black" stroke-width="1" stroke-linecap="round"><line x2="800"></line><line y2="40"></line><line x2="800" y1="40" y2="40"></line><line x1="800" x2="800" y2="40"></line><line x1="733.3333333333334" x2="733.3333333333334" y2="5"></line><line x1="733.3333333333334" x2="733.3333333333334" y1="35" y2="40"></line><line x1="666.6666666666667" x2="666.6666666666667" y2="5"></line><line x1="666.6666666666667" x2="666.6666666666667" y1="35" y2="40"></line><line x1="600" x2="600" y2="5"></line><line x1="600" x2="600" y1="35" y2="40"></line><line x1="533.3333333333334" x2="533.3333333333334" y2="5"></line><line x1="533.3333333333334" x2="533.3333333333334" y1="35" y2="40"></line><line x1="466.6666666666667" x2="466.6666666666667" y2="5"></line><line x1="466.6666666666667" x2="466.6666666666667" y1="35" y2="40"></line><line x1="400" x2="400" y2="5"></line><line x1="400" x2="400" y1="35" y2="40"></line><line x1="333.33333333333337" x2="333.33333333333337" y2="5"></line><line x1="333.33333333333337" x2="333.33333333333337" y1="35" y2="40"></line><line x1="266.6666666666667" x2="266.6666666666667" y2="40"></line><line x1="200" x2="200" y2="40"></line><line x1="133.33333333333334" x2="133.33333333333334" y2="40"></line><line x1="66.66666666666667" x2="66.66666666666667" y2="40"></line></g><g><g transform="translate(0,20)"></g><g transform="translate(33.333333333333336,16)"><text x="733.3333333333334">0</text><text x="266.6666666666667">7</text><text x="200">8</text><text x="133.33333333333334">9</text><text x="66.66666666666667">10</text><text>11</text></g><g transform="translate(33.333333333333336,44)"><text x="500.00000000000006"><tspan>data</tspan></text><text x="200"><tspan>stop</tspan></text><text x="133.33333333333334"><tspan>start</tspan></text><text x="66.66666666666667"><tspan>valid</tspan></text><text><tspan>ready</tspan></text></g><g transform="translate(33.333333333333336,80)"></g></g></g></svg>