<svg id="SvgjsSvg1045" width="507.419921875" height="327" xmlns="http://www.w3.org/2000/svg" version="1.1" xmlns:xlink="http://www.w3.org/1999/xlink" xmlns:svgjs="http://svgjs.com/svgjs"><defs id="SvgjsDefs1046"></defs><g id="SvgjsG1047"><g id="SvgjsG1048"><rect id="SvgjsRect1049" width="507.419921875" height="327" fill="#ffffff" stroke="#777777" stroke-width="1" x="0" y="0"></rect></g><g id="SvgjsG1050"><g id="SvgjsG1051"><rect id="SvgjsRect1052" width="402.74609375" height="303" fill="#cccccc" stroke="#777777" stroke-width="1" x="46.673828125" y="12"></rect></g><g id="SvgjsG1053"><line id="SvgjsLine1054" x1="46.673828125" y1="71" x2="58.673828125" y2="71" stroke="#000000" stroke-width="1"></line><rect id="SvgjsRect1055" width="6" height="6" x="55.673828125" y="68"></rect></g><g id="SvgjsG1056"><line id="SvgjsLine1057" x1="343.177734375" y1="126" x2="449.419921875" y2="126" stroke="#000000" stroke-width="1"></line><rect id="SvgjsRect1058" width="6" height="6" x="446.419921875" y="123"></rect></g><g id="SvgjsG1059"><line id="SvgjsLine1060" x1="349.171875" y1="226" x2="449.419921875" y2="226" stroke="#000000" stroke-width="1"></line><rect id="SvgjsRect1061" width="6" height="6" x="446.419921875" y="223"></rect></g><g id="SvgjsG1062"><line id="SvgjsLine1063" x1="347.841796875" y1="176" x2="371.849609375" y2="176" stroke="#000000" stroke-width="1"></line><rect id="SvgjsRect1064" width="6" height="6" x="368.849609375" y="173"></rect></g><g id="SvgjsG1065"><line id="SvgjsLine1066" x1="351.849609375" y1="276" x2="371.849609375" y2="276" stroke="#000000" stroke-width="1"></line><rect id="SvgjsRect1067" width="6" height="6" x="368.849609375" y="273"></rect></g><g id="SvgjsG1068"><g id="SvgjsG1069"><rect id="SvgjsRect1070" width="65.5703125" height="30" fill="#bbbbbb" stroke="#777777" stroke-width="1" x="371.849609375" y="261"></rect></g><text id="SvgjsText1071" font-family="Helvetica, Arial, sans-serif" fill="#666666" x="376.849609375" style="font-size: 16px;" y="259.703125"><tspan id="SvgjsTspan1072" dy="20.8" x="376.849609375">FLASH</tspan></text></g><g id="SvgjsG1073"><g id="SvgjsG1074"><rect id="SvgjsRect1075" width="60.2265625" height="30" fill="#bbbbbb" stroke="#777777" stroke-width="1" x="371.849609375" y="161"></rect></g><text id="SvgjsText1076" font-family="Helvetica, Arial, sans-serif" fill="#666666" x="376.849609375" style="font-size: 16px;" y="159.703125"><tspan id="SvgjsTspan1077" dy="20.8" x="376.849609375">SRAM</tspan></text></g><g id="SvgjsG1078"><g id="SvgjsG1079"><rect id="SvgjsRect1080" width="209.82421875" height="279" fill="#ffffff" stroke="#777777" stroke-width="1" x="93.34765625" y="24"></rect></g><text id="SvgjsText1081" font-family="Helvetica, Arial, sans-serif" fill="#666666" x="174.478515625" style="font-size: 16px;" y="22.703125"><tspan id="SvgjsTspan1082" dy="20.8" x="174.478515625">FPGA</tspan></text><g id="SvgjsG1083"><polyline id="SvgjsPolyline1084" points="209.171875,126 219.171875,126 219.171875,81 229.171875,81" fill="none" stroke="#000000" stroke-width="6"></polyline><rect id="SvgjsRect1085" width="12" height="12" x="223.171875" y="75"></rect></g><g id="SvgjsG1086"><polyline id="SvgjsPolyline1087" points="209.171875,126 219.171875,126 219.171875,176 235.39453125,176" fill="none" stroke="#000000" stroke-width="6"></polyline><rect id="SvgjsRect1088" width="12" height="12" x="229.39453125" y="170"></rect></g><g id="SvgjsG1089"><polyline id="SvgjsPolyline1090" points="209.171875,126 219.171875,126 219.171875,276 234.5078125,276" fill="none" stroke="#000000" stroke-width="6"></polyline><rect id="SvgjsRect1091" width="12" height="12" x="228.5078125" y="270"></rect></g><g id="SvgjsG1092"><line id="SvgjsLine1093" x1="209.171875" y1="126" x2="233.16796875" y2="126" stroke="#000000" stroke-width="6"></line><rect id="SvgjsRect1094" width="12" height="12" x="227.16796875" y="120"></rect></g><g id="SvgjsG1095"><polyline id="SvgjsPolyline1096" points="209.171875,126 219.171875,126 219.171875,226 229.171875,226" fill="none" stroke="#000000" stroke-width="6"></polyline><rect id="SvgjsRect1097" width="12" height="12" x="223.171875" y="220"></rect></g><g id="SvgjsG1098"><line id="SvgjsLine1099" x1="93.34765625" y1="71" x2="229.171875" y2="71" stroke="#000000" stroke-width="1"></line><rect id="SvgjsRect1100" width="6" height="6" x="226.171875" y="68"></rect></g><g id="SvgjsG1101"><line id="SvgjsLine1102" x1="284.94921875" y1="176" x2="303.171875" y2="176" stroke="#000000" stroke-width="1"></line><rect id="SvgjsRect1103" width="6" height="6" x="300.171875" y="173"></rect></g><g id="SvgjsG1104"><line id="SvgjsLine1105" x1="285.8359375" y1="276" x2="303.171875" y2="276" stroke="#000000" stroke-width="1"></line><rect id="SvgjsRect1106" width="6" height="6" x="300.171875" y="273"></rect></g><g id="SvgjsG1107"><line id="SvgjsLine1108" x1="287.17578125" y1="126" x2="303.171875" y2="126" stroke="#000000" stroke-width="1"></line><rect id="SvgjsRect1109" width="6" height="6" x="300.171875" y="123"></rect></g><g id="SvgjsG1110"><line id="SvgjsLine1111" x1="291.171875" y1="226" x2="303.171875" y2="226" stroke="#000000" stroke-width="1"></line><rect id="SvgjsRect1112" width="6" height="6" x="300.171875" y="223"></rect></g><g id="SvgjsG1113"><g id="SvgjsG1114"><rect id="SvgjsRect1115" width="74.4765625" height="30" fill="#44bbff" stroke="#0066dd" stroke-width="2" x="105.34765625" y="111"></rect></g><text id="SvgjsText1116" font-family="Helvetica, Arial, sans-serif" fill="#4466cc" x="110.34765625" style="font-size: 16px;" y="109.703125"><tspan id="SvgjsTspan1117" dy="20.8" x="110.34765625">picorv32</tspan></text><rect id="SvgjsRect1118" width="29.34765625" height="18" x="179.82421875" y="117" fill="#0066dd" stroke-width="0"></rect><text id="SvgjsText1119" font-family="Helvetica, Arial, sans-serif" fill="#ffffff" style="font-size: 12px;" x="184.82421875" y="109.203125"><tspan id="SvgjsTspan1120" dy="20.8" x="184.82421875">bus</tspan></text></g><g id="SvgjsG1121"><g id="SvgjsG1122"><rect id="SvgjsRect1123" width="46.8984375" height="30" fill="#ffffff" stroke="#777777" stroke-width="1" x="229.171875" y="61"></rect></g><text id="SvgjsText1124" font-family="Helvetica, Arial, sans-serif" fill="#666666" x="234.171875" style="font-size: 16px;" y="59.703125"><tspan id="SvgjsTspan1125" dy="20.8" x="234.171875">USB</tspan></text></g><g id="SvgjsG1126"><g id="SvgjsG1127"><rect id="SvgjsRect1128" width="49.5546875" height="30" fill="#ffffff" stroke="#777777" stroke-width="1" x="235.39453125" y="161"></rect></g><text id="SvgjsText1129" font-family="Helvetica, Arial, sans-serif" fill="#666666" x="240.39453125" style="font-size: 16px;" y="159.703125"><tspan id="SvgjsTspan1130" dy="20.8" x="240.39453125">RAM</tspan></text></g><g id="SvgjsG1131"><g id="SvgjsG1132"><rect id="SvgjsRect1133" width="51.328125" height="30" fill="#ffffff" stroke="#777777" stroke-width="1" x="234.5078125" y="261"></rect></g><text id="SvgjsText1134" font-family="Helvetica, Arial, sans-serif" fill="#666666" x="239.5078125" style="font-size: 16px;" y="259.703125"><tspan id="SvgjsTspan1135" dy="20.8" x="239.5078125">ROM</tspan></text></g><g id="SvgjsG1136"><g id="SvgjsG1137"><rect id="SvgjsRect1138" width="54.0078125" height="30" fill="#ffffff" stroke="#777777" stroke-width="1" x="233.16796875" y="111"></rect></g><text id="SvgjsText1139" font-family="Helvetica, Arial, sans-serif" fill="#666666" x="238.16796875" style="font-size: 16px;" y="109.703125"><tspan id="SvgjsTspan1140" dy="20.8" x="238.16796875">GPIO</tspan></text></g><g id="SvgjsG1141"><g id="SvgjsG1142"><rect id="SvgjsRect1143" width="62" height="30" fill="#ffffff" stroke="#777777" stroke-width="1" x="229.171875" y="211"></rect></g><text id="SvgjsText1144" font-family="Helvetica, Arial, sans-serif" fill="#666666" x="234.171875" style="font-size: 16px;" y="209.703125"><tspan id="SvgjsTspan1145" dy="20.8" x="234.171875">XMOD</tspan></text></g><rect id="SvgjsRect1146" width="34.673828125" height="18" x="58.673828125" y="62" fill="#777777" stroke-width="0"></rect><text id="SvgjsText1147" font-family="Helvetica, Arial, sans-serif" fill="#ffffff" style="font-size: 12px;" x="63.673828125" y="54.203125"><tspan id="SvgjsTspan1148" dy="20.8" x="63.673828125">USB</tspan></text><rect id="SvgjsRect1149" width="44.669921875" height="18" x="303.171875" y="167" fill="#777777" stroke-width="0"></rect><text id="SvgjsText1150" font-family="Helvetica, Arial, sans-serif" fill="#ffffff" style="font-size: 12px;" x="308.171875" y="159.203125"><tspan id="SvgjsTspan1151" dy="20.8" x="308.171875">SRAM</tspan></text><rect id="SvgjsRect1152" width="48.677734375" height="18" x="303.171875" y="267" fill="#777777" stroke-width="0"></rect><text id="SvgjsText1153" font-family="Helvetica, Arial, sans-serif" fill="#ffffff" style="font-size: 12px;" x="308.171875" y="259.203125"><tspan id="SvgjsTspan1154" dy="20.8" x="308.171875">FLASH</tspan></text><rect id="SvgjsRect1155" width="40.005859375" height="18" x="303.171875" y="117" fill="#777777" stroke-width="0"></rect><text id="SvgjsText1156" font-family="Helvetica, Arial, sans-serif" fill="#ffffff" style="font-size: 12px;" x="308.171875" y="109.203125"><tspan id="SvgjsTspan1157" dy="20.8" x="308.171875">GPIO</tspan></text><rect id="SvgjsRect1158" width="46" height="18" x="303.171875" y="217" fill="#777777" stroke-width="0"></rect><text id="SvgjsText1159" font-family="Helvetica, Arial, sans-serif" fill="#ffffff" style="font-size: 12px;" x="308.171875" y="209.203125"><tspan id="SvgjsTspan1160" dy="20.8" x="308.171875">XMOD</tspan></text></g><rect id="SvgjsRect1161" width="34.673828125" height="18" x="12" y="62" fill="#777777" stroke-width="0"></rect><text id="SvgjsText1162" font-family="Helvetica, Arial, sans-serif" fill="#ffffff" style="font-size: 12px;" x="17" y="54.203125"><tspan id="SvgjsTspan1163" dy="20.8" x="17">USB</tspan></text><rect id="SvgjsRect1164" width="46" height="18" x="449.419921875" y="217" fill="#777777" stroke-width="0"></rect><text id="SvgjsText1165" font-family="Helvetica, Arial, sans-serif" fill="#ffffff" style="font-size: 12px;" x="454.419921875" y="209.203125"><tspan id="SvgjsTspan1166" dy="20.8" x="454.419921875">XMOD</tspan></text><rect id="SvgjsRect1167" width="40.005859375" height="18" x="449.419921875" y="117" fill="#777777" stroke-width="0"></rect><text id="SvgjsText1168" font-family="Helvetica, Arial, sans-serif" fill="#ffffff" style="font-size: 12px;" x="454.419921875" y="109.203125"><tspan id="SvgjsTspan1169" dy="20.8" x="454.419921875">GPIO</tspan></text></g></g></svg>