<svg id="SvgjsSvg1037" width="540.25" height="140" xmlns="http://www.w3.org/2000/svg" version="1.1" xmlns:xlink="http://www.w3.org/1999/xlink" xmlns:svgjs="http://svgjs.com/svgjs"><defs id="SvgjsDefs1038"></defs><g id="SvgjsG1039"><g id="SvgjsG1040"><rect id="SvgjsRect1041" width="540.25" height="140" fill="#ffffff" stroke="#777777" stroke-width="1" x="0" y="0"></rect></g><g id="SvgjsG1042"><polyline id="SvgjsPolyline1043" points="102.5,105 112.5,105 112.5,89 122.5,89" fill="none" stroke="#000000" stroke-width="1"></polyline><rect id="SvgjsRect1044" width="6" height="6" x="119.5" y="86"></rect></g><g id="SvgjsG1045"><line id="SvgjsLine1046" x1="102.5" y1="39" x2="122.5" y2="39" stroke="#000000" stroke-width="1"></line><rect id="SvgjsRect1047" width="6" height="6" x="119.5" y="36"></rect></g><g id="SvgjsG1048"><line id="SvgjsLine1049" x1="402.6328125" y1="44" x2="422.6328125" y2="44" stroke="#000000" stroke-width="1"></line><rect id="SvgjsRect1050" width="6" height="6" x="419.6328125" y="41"></rect></g><g id="SvgjsG1051"><g id="SvgjsG1052"><rect id="SvgjsRect1053" width="90.5" height="46" fill="#dddddd" stroke="#444444" stroke-width="2" x="12" y="82"></rect></g><text id="SvgjsText1054" font-family="Helvetica, Arial, sans-serif" fill="#222222" x="17" style="font-size: 16px;" y="80.546875"><tspan id="SvgjsTspan1055" dy="20.8" x="17">application</tspan></text><text id="SvgjsText1056" font-family="Helvetica, Arial, sans-serif" fill="#666666" x="34.5751953125" style="font-size: 12px;" y="97.203125"><tspan id="SvgjsTspan1057" dy="20.8" x="34.5751953125">C / C++</tspan></text></g><g id="SvgjsG1058"><g id="SvgjsG1059"><rect id="SvgjsRect1060" width="67.349609375" height="46" fill="#dddddd" stroke="#444444" stroke-width="2" x="35.150390625" y="16"></rect></g><text id="SvgjsText1061" font-family="Helvetica, Arial, sans-serif" fill="#222222" x="51.2626953125" style="font-size: 16px;" y="14.546875"><tspan id="SvgjsTspan1062" dy="20.8" x="51.2626953125">SoC</tspan></text><text id="SvgjsText1063" font-family="Helvetica, Arial, sans-serif" fill="#666666" x="40.150390625" style="font-size: 12px;" y="31.203125"><tspan id="SvgjsTspan1064" dy="20.8" x="40.150390625">VERILOG</tspan></text></g><g id="SvgjsG1065"><g id="SvgjsG1066"><rect id="SvgjsRect1067" width="260.1328125" height="104" fill="#dddddd" stroke="#444444" stroke-width="2" x="132.5" y="12"></rect></g><g id="SvgjsG1068"><line id="SvgjsLine1069" x1="132.5" y1="89" x2="147.7734375" y2="89" stroke="#000000" stroke-width="1"></line><rect id="SvgjsRect1070" width="6" height="6" x="144.7734375" y="86"></rect></g><g id="SvgjsG1071"><line id="SvgjsLine1072" x1="197.328125" y1="89" x2="220.6015625" y2="89" stroke="#000000" stroke-width="1"></line><rect id="SvgjsRect1073" width="6" height="6" x="217.6015625" y="86"></rect></g><g id="SvgjsG1074"><polyline id="SvgjsPolyline1075" points="311.0625,89 321.0625,89 321.0625,49 331.0625,49" fill="none" stroke="#000000" stroke-width="1"></polyline><rect id="SvgjsRect1076" width="6" height="6" x="328.0625" y="46"></rect></g><g id="SvgjsG1077"><line id="SvgjsLine1078" x1="132.5" y1="39" x2="144.5" y2="39" stroke="#000000" stroke-width="1"></line><rect id="SvgjsRect1079" width="6" height="6" x="141.5" y="36"></rect></g><g id="SvgjsG1080"><line id="SvgjsLine1081" x1="200.6015625" y1="39" x2="226.8203125" y2="39" stroke="#000000" stroke-width="1"></line><rect id="SvgjsRect1082" width="6" height="6" x="223.8203125" y="36"></rect></g><g id="SvgjsG1083"><line id="SvgjsLine1084" x1="304.84375" y1="39" x2="331.0625" y2="39" stroke="#000000" stroke-width="1"></line><rect id="SvgjsRect1085" width="6" height="6" x="328.0625" y="36"></rect></g><g id="SvgjsG1086"><line id="SvgjsLine1087" x1="380.6328125" y1="44" x2="392.6328125" y2="44" stroke="#000000" stroke-width="1"></line><rect id="SvgjsRect1088" width="6" height="6" x="389.6328125" y="41"></rect></g><g id="SvgjsG1089"><g id="SvgjsG1090"><rect id="SvgjsRect1091" width="56.1015625" height="30" fill="#44bbff" stroke="#0066dd" stroke-width="2" x="144.5" y="24"></rect></g><text id="SvgjsText1092" font-family="Helvetica, Arial, sans-serif" fill="#4466cc" x="149.5" style="font-size: 16px;" y="22.546875"><tspan id="SvgjsTspan1093" dy="20.8" x="149.5">Yosys</tspan></text></g><g id="SvgjsG1094"><g id="SvgjsG1095"><rect id="SvgjsRect1096" width="78.0234375" height="30" fill="#ff8888" stroke="#cc0000" stroke-width="2" x="226.8203125" y="24"></rect></g><text id="SvgjsText1097" font-family="Helvetica, Arial, sans-serif" fill="#992222" x="231.8203125" style="font-size: 16px;" y="22.546875"><tspan id="SvgjsTspan1098" dy="20.8" x="231.8203125">NextPnR</tspan></text></g><g id="SvgjsG1099"><g id="SvgjsG1100"><rect id="SvgjsRect1101" width="49.5703125" height="30" fill="#ffee66" stroke="#998800" stroke-width="2" x="331.0625" y="29"></rect></g><text id="SvgjsText1102" font-family="Helvetica, Arial, sans-serif" fill="#aa9900" x="336.0625" style="font-size: 16px;" y="27.546875"><tspan id="SvgjsTspan1103" dy="20.8" x="336.0625">Pack</tspan></text></g><g id="SvgjsG1104"><g id="SvgjsG1105"><rect id="SvgjsRect1106" width="49.5546875" height="30" fill="#77ee00" stroke="#559900" stroke-width="2" x="147.7734375" y="74"></rect></g><text id="SvgjsText1107" font-family="Helvetica, Arial, sans-serif" fill="#335500" x="152.7734375" style="font-size: 16px;" y="72.546875"><tspan id="SvgjsTspan1108" dy="20.8" x="152.7734375">GCC</tspan></text></g><g id="SvgjsG1109"><g id="SvgjsG1110"><rect id="SvgjsRect1111" width="90.4609375" height="30" fill="#bb55dd" stroke="#661199" stroke-width="2" x="220.6015625" y="74"></rect></g><text id="SvgjsText1112" font-family="Helvetica, Arial, sans-serif" fill="#661199" x="225.6015625" style="font-size: 16px;" y="72.546875"><tspan id="SvgjsTspan1113" dy="20.8" x="225.6015625">OBJCOPY</tspan></text></g><rect id="SvgjsRect1114" width="10" height="18" x="122.5" y="30" fill="#444444" stroke-width="0"></rect><text id="SvgjsText1115" font-family="Helvetica, Arial, sans-serif" fill="#ffffff" style="font-size: 12px;" x="127.5" y="32"><tspan id="SvgjsTspan1116" dy="20.8" x="127.5"> </tspan></text><rect id="SvgjsRect1117" width="10" height="18" x="122.5" y="80" fill="#444444" stroke-width="0"></rect><text id="SvgjsText1118" font-family="Helvetica, Arial, sans-serif" fill="#ffffff" style="font-size: 12px;" x="127.5" y="82"><tspan id="SvgjsTspan1119" dy="20.8" x="127.5"> </tspan></text><rect id="SvgjsRect1120" width="10" height="18" x="392.6328125" y="35" fill="#444444" stroke-width="0"></rect><text id="SvgjsText1121" font-family="Helvetica, Arial, sans-serif" fill="#ffffff" style="font-size: 12px;" x="397.6328125" y="37"><tspan id="SvgjsTspan1122" dy="20.8" x="397.6328125"> </tspan></text></g><g id="SvgjsG1123"><g id="SvgjsG1124"><rect id="SvgjsRect1125" width="105.6171875" height="46" fill="#dddddd" stroke="#444444" stroke-width="2" x="422.6328125" y="21"></rect></g><text id="SvgjsText1126" font-family="Helvetica, Arial, sans-serif" fill="#222222" x="427.6328125" style="font-size: 16px;" y="19.546875"><tspan id="SvgjsTspan1127" dy="20.8" x="427.6328125">configuration</tspan></text><text id="SvgjsText1128" font-family="Helvetica, Arial, sans-serif" fill="#666666" x="439.10546875" style="font-size: 12px;" y="36.203125"><tspan id="SvgjsTspan1129" dy="20.8" x="439.10546875">BITSTREAM</tspan></text></g></g></svg>